<svg width="75" height="75" viewBox="0 0 75 75" fill="none" xmlns="http://www.w3.org/2000/svg"><path d="M37.487 49.86c2.57 0 4.661-2.09 4.661-4.66 0-2.57-2.09-4.661-4.66-4.661a4.666 4.666 0 0 0-4.661 4.66c0 2.57 2.09 4.661 4.66 4.661zm0-7.182A2.525 2.525 0 0 1 40.01 45.2a2.525 2.525 0 0 1-2.522 2.521 2.525 2.525 0 0 1-2.522-2.521 2.525 2.525 0 0 1 2.522-2.522zm20.676-27.23c4.259 0 7.724-3.465 7.724-7.724 0-4.26-3.465-7.724-7.724-7.724-4.26 0-7.724 3.465-7.724 7.724s3.465 7.724 7.724 7.724zm0-13.31a5.592 5.592 0 0 1 5.585 5.586 5.591 5.591 0 0 1-5.585 5.585 5.591 5.591 0 0 1-5.585-5.585 5.591 5.591 0 0 1 5.585-5.585zm11.443 25.198a1.07 1.07 0 0 0-1.069 1.07v14.632c0 .381-.31.691-.69.691h-2.61V24.853a1.07 1.07 0 1 0-2.138 0V70.17c0 .381-.31.691-.69.691h-2.486c-.38 0-.69-.31-.69-.69V53.157a1.07 1.07 0 1 0-2.14 0V70.17c0 .38-.31.69-.69.69h-2.485c-.38 0-.69-.31-.69-.69V24.853a1.07 1.07 0 1 0-2.14 0v18.876H48.48c-.38 0-.69-.31-.69-.69V24.85a6.377 6.377 0 0 1 6.37-6.369h8.01a6.377 6.377 0 0 1 6.368 6.37 1.07 1.07 0 1 0 2.14 0c0-4.692-3.818-8.509-8.51-8.509h-8.01c-4.69 0-8.508 3.817-8.508 8.509v18.19a2.833 2.833 0 0 0 2.83 2.828h2.609v24.303c0 1.56 1.27 2.829 2.83 2.829h2.485c.665 0 1.276-.232 1.76-.618a2.814 2.814 0 0 0 1.76.618h2.485c1.56 0 2.83-1.27 2.83-2.83V45.869h2.608c1.56 0 2.83-1.27 2.83-2.83V28.406a1.07 1.07 0 0 0-1.07-1.07zm-54.489-5.351c4.26 0 7.725-3.465 7.725-7.724 0-4.26-3.465-7.724-7.724-7.724-4.26 0-7.724 3.465-7.724 7.724s3.465 7.724 7.723 7.724zm0-13.31a5.592 5.592 0 0 1 5.586 5.586 5.592 5.592 0 0 1-5.585 5.585 5.591 5.591 0 0 1-5.585-5.585 5.592 5.592 0 0 1 5.585-5.585zm3.517 14.314h-7.033C7.41 22.989 4 26.399 4 30.59v15.972a2.618 2.618 0 0 0 2.615 2.614h.032l-.74 6.737A1.07 1.07 0 0 0 6.97 57.1h1.805v13.286A2.618 2.618 0 0 0 11.39 73h2.182a2.6 2.6 0 0 0 1.546-.51 2.6 2.6 0 0 0 1.545.51h2.183a2.618 2.618 0 0 0 2.614-2.615V64.48a1.07 1.07 0 1 0-2.138 0v5.905a.476.476 0 0 1-.476.476h-2.182a.476.476 0 0 1-.476-.476V58.963a1.07 1.07 0 1 0-2.14 0v11.422a.476.476 0 0 1-.475.476H11.39a.476.476 0 0 1-.476-.476V57.1h8.407v3.958a1.07 1.07 0 1 0 2.14 0V57.1h1.805a1.069 1.069 0 0 0 1.063-1.186l-.74-6.737h.032a2.617 2.617 0 0 0 2.614-2.615V30.59c0-4.191-3.41-7.601-7.6-7.601zm5.463 23.572a.477.477 0 0 1-.476.476h-.268l-1.957-17.816a1.07 1.07 0 1 0-2.126.233l2.803 25.507H8.163l2.803-25.506a1.07 1.07 0 1 0-2.126-.234L6.882 47.037h-.267a.476.476 0 0 1-.476-.475V30.59a5.469 5.469 0 0 1 5.462-5.462h7.033a5.469 5.469 0 0 1 5.463 5.462v15.97z" fill="#E64B3B"/><path d="M45.592 46.304a2.847 2.847 0 0 0-2 .902l-3.988 4.247h-4.128l-3.988-4.247a2.87 2.87 0 0 0-4.052-.127 2.87 2.87 0 0 0-.128 4.052l4.624 4.924v14.15A2.798 2.798 0 0 0 34.727 73h5.626a2.798 2.798 0 0 0 2.794-2.795v-5.868a1.07 1.07 0 1 0-2.138 0v5.868a.656.656 0 0 1-.656.656H38.56v-8.92a1.07 1.07 0 1 0-2.139 0v8.92h-1.693a.656.656 0 0 1-.656-.656V55.631a1.07 1.07 0 0 0-.29-.732l-4.913-5.232a.729.729 0 0 1 1.06-.996l4.305 4.584c.203.215.485.337.78.337h5.054c.295 0 .578-.122.78-.337l4.304-4.584a.728.728 0 0 1 1.061.996l-4.914 5.232a1.07 1.07 0 0 0-.29.732v5.141a1.07 1.07 0 1 0 2.14 0v-4.717l4.623-4.924a2.87 2.87 0 0 0-.127-4.052 2.852 2.852 0 0 0-2.052-.775z" fill="#E64B3B"/></svg>