<svg width="75" height="75" viewBox="0 0 75 75" fill="none" xmlns="http://www.w3.org/2000/svg"><g clip-path="url(#a)" fill="#FFD466"><path d="M69.017 19.3a1.325 1.325 0 0 0-1.81-.48l-6.468 3.74a1.325 1.325 0 0 0 1.331 2.29l6.468-3.74a1.325 1.325 0 0 0 .48-1.81zm-.479 34.597-6.468-3.739a1.325 1.325 0 0 0-1.331 2.29l6.468 3.74a1.325 1.325 0 0 0 1.331-2.29zm-30.936 9.775a1.331 1.331 0 0 0-1.426 1.427v7.47a1.332 1.332 0 1 0 2.656 0V65.1a1.332 1.332 0 0 0-1.23-1.427zM14.262 22.56l-6.468-3.74a1.325 1.325 0 0 0-1.332 2.29l6.468 3.74a1.325 1.325 0 0 0 1.332-2.29zm23.34-21.556a1.332 1.332 0 0 0-1.426 1.426V9.9c.004.73.594 1.321 1.324 1.325.735 0 1.332-.596 1.332-1.332V2.43a1.332 1.332 0 0 0-1.23-1.426zM24.842 12.93 21.11 6.462a1.325 1.325 0 0 0-2.29 1.332l3.732 6.468a1.325 1.325 0 0 0 2.29-1.332zm12.855 12.753a1.298 1.298 0 0 0-.197 0c-6.526 0-11.816 5.29-11.816 11.817 0 .736.596 1.332 1.331 1.332A1.332 1.332 0 0 0 28.34 37.5a9.154 9.154 0 0 1 9.146-9.16h.014a1.332 1.332 0 1 0 .197-2.657zM73.8 37.398a1.332 1.332 0 0 0-1.23-1.23H65.1a1.332 1.332 0 1 0 0 2.656h7.47a1.331 1.331 0 0 0 1.23-1.426zm-63.702-1.222a1.325 1.325 0 0 0-.197 0H2.43a1.332 1.332 0 0 0 0 2.656H9.9a1.332 1.332 0 1 0 .197-2.656z"/><path d="M37.505 17.957c-10.793-.002-19.544 8.747-19.546 19.54 0 5.186 2.06 10.159 5.727 13.825A19.477 19.477 0 0 0 37.5 57.043c10.794.002 19.545-8.747 19.546-19.54.002-10.794-8.747-19.545-19.54-19.546zm11.936 31.506c-6.595 6.595-17.287 6.595-23.882 0A16.887 16.887 0 0 1 20.613 37.5a16.829 16.829 0 0 1 4.946-11.941v.022c6.595-6.595 17.287-6.595 23.882 0 6.595 6.595 6.595 17.287 0 23.882zm6.743 17.749-.004-.005-3.739-6.469a1.325 1.325 0 0 0-2.29 1.332l3.739 6.468a1.324 1.324 0 0 0 2.294-1.326zm-.439-61.229a1.325 1.325 0 0 0-1.811.479l-3.739 6.468a1.325 1.325 0 0 0 .472 1.813l.004.002a1.324 1.324 0 0 0 1.81-.477l.004-.006 3.74-6.468a1.325 1.325 0 0 0-.48-1.811zM24.37 60.26a1.325 1.325 0 0 0-1.81.478l-3.74 6.469a1.325 1.325 0 0 0 2.29 1.331l3.74-6.468a1.325 1.325 0 0 0-.48-1.81zm-9.629-9.63a1.325 1.325 0 0 0-1.81-.48l-6.469 3.74a1.325 1.325 0 0 0 1.332 2.29l6.468-3.739a1.325 1.325 0 0 0 .48-1.81z"/></g><defs><clipPath id="a"><path fill="#fff" transform="translate(1 1)" d="M0 0h73v73H0z"/></clipPath></defs></svg>