<svg width="75" height="75" viewBox="0 0 75 75" fill="none" xmlns="http://www.w3.org/2000/svg"><g clip-path="url(#a)"><path d="M70.36 23.609 49.172 15.53a.995.995 0 0 0-.71 1.86l18.749 7.147-12.979 4.95-16.322-7.391a.995.995 0 1 0-.822 1.813l14.524 6.576-14.113 5.38L7.788 24.539 37.5 13.21l7.322 2.792a.996.996 0 0 0 .709-1.86l-7.676-2.926a.996.996 0 0 0-.71 0L4.64 23.609a.996.996 0 0 0-.64.93v4.544c0 .412.255.782.64.93l10.15 3.87v3.447a.995.995 0 1 0 1.99 0v-2.689l20.365 7.764a1 1 0 0 0 .71 0l15.35-5.852v15.748A33.857 33.857 0 0 1 37.5 56.187a33.858 33.858 0 0 1-20.72-7.112V41.31a.995.995 0 1 0-1.99 0v8.246c0 .302.138.587.373.776A35.852 35.852 0 0 0 37.5 58.176c5.456 0 10.84-1.268 15.705-3.645v4.028a3.787 3.787 0 0 0-2.786 3.647 3.785 3.785 0 0 0 3.78 3.781 3.785 3.785 0 0 0 3.782-3.781c0-1.74-1.182-3.21-2.786-3.647V53.48a35.473 35.473 0 0 0 4.642-3.147.995.995 0 0 0 .373-.776V33.882l10.15-3.87a.995.995 0 0 0 .64-.93v-4.544a.996.996 0 0 0-.64-.93zM55.99 62.206c0 .987-.803 1.79-1.791 1.79-.987 0-1.79-.803-1.79-1.79 0-.988.803-1.791 1.79-1.791s1.791.803 1.791 1.791zm-50-36.223 30.515 11.634v2.414L5.99 28.397v-2.414zm32.505 14.048v-2.414l14.71-5.608v2.414l-14.71 5.608zm19.725 9.043a33.345 33.345 0 0 1-3.025 2.095V35.794l3.025-1.153v14.433zm-3.025-15.41V31.25l13.815-5.267v2.414l-13.815 5.267z" fill="#4B6B7E"/></g><defs><clipPath id="a"><path fill="#fff" transform="translate(4 5)" d="M0 0h67v67H0z"/></clipPath></defs></svg>