<svg width="180" height="148" viewBox="0 0 180 148" fill="none" xmlns="http://www.w3.org/2000/svg"><path fill-rule="evenodd" clip-rule="evenodd" d="M97.093.34c13.487-1.238 26.715 1.003 39.605 5.163 15.295 4.937 37.073 6.103 42.345 21.287 5.653 16.28-15.46 30.363-18.521 47.322-2.319 12.851 6.734 25.86 3.054 38.389-4.036 13.74-10.991 29.534-24.446 34.433-13.786 5.019-27.398-9.255-42.037-10.227-13.276-.882-25.826 7.128-38.934 4.849-16.174-2.812-33.662-6.9-44.384-19.334C2.695 109.371-.158 91.081.007 74.112.17 57.227 2.79 38.5 14.707 26.539 26.399 14.8 45.684 17.427 61.472 12.406 73.626 8.541 84.392 1.506 97.092.34z" fill="#9CC32F" fill-opacity=".1"/><g clip-path="url(#a)" fill="#9CC32F"><path d="m136.09 34.378-18.621-7.757a8.414 8.414 0 0 0-6.428 0l-8.94 3.724a1.568 1.568 0 0 0 1.205 2.894l8.941-3.724a5.257 5.257 0 0 1 4.017 0l18.62 7.757c1.811.755 2.981 2.454 2.981 4.327v67.032c0 2.607-2.239 4.727-4.99 4.727h-2.541a1.568 1.568 0 1 0 0 3.135h2.541c4.48 0 8.125-3.527 8.125-7.862V41.599c0-3.142-1.927-5.976-4.91-7.22zm-12.588 78.98H97.165a6.699 6.699 0 0 0 1.679-4.451 6.71 6.71 0 0 0-1.588-4.339 6.777 6.777 0 0 0 1.712-1.244 6.7 6.7 0 0 0 1.974-4.768 6.712 6.712 0 0 0-1.707-4.477 6.75 6.75 0 0 0 1.452-1.104 6.698 6.698 0 0 0 1.975-4.768 6.72 6.72 0 0 0-1.697-4.467 6.8 6.8 0 0 0 1.477-1.118 6.707 6.707 0 0 0 1.973-4.766 6.75 6.75 0 0 0-6.742-6.744h-7.028V41.599c0-1.873 1.17-3.572 2.98-4.327l2.851-1.187a1.567 1.567 0 1 0-1.205-2.894l-2.852 1.187c-2.982 1.244-4.909 4.079-4.909 7.221v29.513h-6.549c2.18-6.891 1.995-14.083-.55-22.431a6.052 6.052 0 0 0-2.224-3.131 6.117 6.117 0 0 0-3.643-1.192c-1.7 0-3.282.68-4.453 1.912a6.083 6.083 0 0 0-1.678 4.545c.49 9.425-3.857 12.669-9.874 17.159-1.981 1.478-4.146 3.095-6.274 5.077v-2.054c0-.866-.702-1.567-1.568-1.567h-15.13c-.865 0-1.567.701-1.567 1.567v44.453c0 .866.702 1.567 1.567 1.567h15.13c.867 0 1.568-.701 1.568-1.567v-3.943c2.977.283 5.151.876 7.264 2.495a7.964 7.964 0 0 0 4.813 1.649h27.643c1.13.55 2.381.842 3.65.842h27.867a1.568 1.568 0 0 0 0-3.135zm-62.066-1.844c-2.956-2.264-6.114-2.894-9.17-3.158V90.055a1.567 1.567 0 1 0-3.136 0v23.828H37.136V72.565H49.13v10.66a1.567 1.567 0 1 0 3.135 0v-5.72c2.622-2.894 5.43-4.99 8.149-7.018 6.02-4.493 11.707-8.737 11.13-19.834-.043-.83.248-1.62.821-2.224a2.977 2.977 0 0 1 2.18-.936 3 3 0 0 1 2.869 2.104c2.592 8.502 2.551 15.656-.128 22.513a1.568 1.568 0 0 0 1.46 2.138h18.927a3.613 3.613 0 0 1 3.608 3.609c0 .962-.376 1.868-1.055 2.55a3.593 3.593 0 0 1-2.553 1.057h-6.438a1.567 1.567 0 1 0 0 3.135h4.685a3.612 3.612 0 0 1 3.607 3.609c0 .964-.375 1.87-1.056 2.551a3.583 3.583 0 0 1-2.551 1.056h-4.685a1.567 1.567 0 1 0 0 3.135H94.2a3.611 3.611 0 0 1 3.607 3.607c0 .964-.375 1.87-1.056 2.551a3.587 3.587 0 0 1-2.551 1.058h-4.686a1.567 1.567 0 1 0 0 3.135h2.588a3.611 3.611 0 0 1 2.552 6.159c-.636.635-1.642 1.04-2.395 1.053l-27.917.004a4.82 4.82 0 0 1-2.906-1.003z"/><path d="M119.912 42.295a5.98 5.98 0 0 0-5.973-5.973 5.98 5.98 0 0 0-5.974 5.973 5.98 5.98 0 0 0 5.974 5.974 5.98 5.98 0 0 0 5.973-5.974zm-8.812 0a2.842 2.842 0 0 1 2.839-2.838 2.841 2.841 0 0 1 2.838 2.838 2.841 2.841 0 0 1-2.838 2.839 2.842 2.842 0 0 1-2.839-2.839zm3.818 53.482h-2.811a2.688 2.688 0 0 1-2.685-2.686 1.568 1.568 0 0 0-3.135 0 5.826 5.826 0 0 0 5.658 5.816v3.469a1.566 1.566 0 1 0 3.135 0v-3.469a5.826 5.826 0 0 0 5.658-5.816v-2.17a4.62 4.62 0 0 0-3.201-4.405l-7.081-2.3a1.493 1.493 0 0 1-1.034-1.424v-3.107c0-1.203.978-2.181 2.18-2.181h3.821c1.202 0 2.18.978 2.18 2.18a1.568 1.568 0 0 0 3.135 0 5.321 5.321 0 0 0-5.315-5.315h-.343v-3.465a1.568 1.568 0 0 0-3.135 0v3.465h-.343a5.321 5.321 0 0 0-5.315 5.316v3.106a4.62 4.62 0 0 0 3.201 4.406l7.08 2.3a1.494 1.494 0 0 1 1.035 1.424v2.17a2.688 2.688 0 0 1-2.685 2.686z"/></g><defs><clipPath id="a"><path fill="#fff" transform="translate(34 18)" d="M0 0h107v107H0z"/></clipPath></defs></svg>