<svg width="207" height="173" viewBox="0 0 207 173" fill="none" xmlns="http://www.w3.org/2000/svg"><path fill-rule="evenodd" clip-rule="evenodd" d="M1.006 98.71C3.548 79.815 26.97 72.33 37.358 56.334c11.36-17.492 7.11-47.843 26.78-54.841 19.524-6.947 37.689 14.236 54.887 25.787 12.664 8.506 19.366 22.275 31.129 31.987 17.912 14.79 49.397 17.017 55.38 39.441 5.75 21.555-11.275 45.167-29.286 58.368-16.442 12.052-39.132 3.745-59.331 6.586-15.439 2.171-29.479 10.32-44.907 8.075-17.568-2.556-34.922-8.773-47.287-21.491-13.52-13.906-26.3-32.33-23.717-51.538z" fill="#3B8E87" fill-opacity=".1"/><g clip-path="url(#a)"><path d="M147.374 114.868c.898 0 1.626-.728 1.626-1.626v-3.145c0-3.178-2.427-5.765-5.411-5.765h-2.631v-3.331a4.233 4.233 0 0 0-4.228-4.228h-13.088a4.233 4.233 0 0 0-4.228 4.228v8.676c-11.691-1.364-26.245-1.366-37.956 0v-8.676a4.233 4.233 0 0 0-4.228-4.228h-1.034c8.914-5.428 18.882-12.788 26.655-19.957l5.103 7.017a4.233 4.233 0 0 0 5.906.932l10.585-7.699a4.233 4.233 0 0 0 .932-5.906l-1.96-2.694 2.128-1.548c2.413-1.755 2.854-5.274.984-7.845l-8.826-12.134c-1.87-2.57-5.353-3.234-7.766-1.48l-2.128 1.549-1.96-2.694a4.232 4.232 0 0 0-5.906-.933L89.36 51.08a4.233 4.233 0 0 0-.932 5.906l5.103 7.016C83.27 69.778 71.502 78.336 62.836 86.33l-3.754-5.16c-2.114-2.907-6.205-3.553-9.11-1.439l-6.874 5a6.53 6.53 0 0 0-1.438 9.11l.61.84-2.128 1.547c-2.461 1.79-2.816 5.327-.985 7.845l8.826 12.134c.966 1.328 2.381 2.172 3.89 2.396v6.5c0 3.178 2.428 5.765 5.411 5.765h2.631v3.331a4.232 4.232 0 0 0 4.228 4.228H77.23a4.233 4.233 0 0 0 4.228-4.228v-8.675c4.621.537 9.816.875 15.151.983h.034a1.627 1.627 0 0 0 .032-3.252c-5.38-.108-10.606-.454-15.217-1.006v-9.298c11.502-1.378 26.215-1.407 37.956 0v9.298c-4.61.552-9.836.898-15.216 1.006a1.627 1.627 0 0 0 .032 3.252h.033c5.336-.108 10.53-.446 15.151-.983v8.675a4.233 4.233 0 0 0 4.228 4.228h13.088a4.233 4.233 0 0 0 4.228-4.228v-3.331h2.631c2.984 0 5.411-2.587 5.411-5.765v-4.271a1.625 1.625 0 1 0-3.252 0v4.271c0 1.362-.989 2.513-2.159 2.513h-2.631v-20.03h2.631c1.17 0 2.159 1.151 2.159 2.513v3.144c0 .898.728 1.626 1.626 1.626zM111.85 48.09c.946-.688 2.422-.34 3.223.762l8.826 12.134c.801 1.102.679 2.614-.267 3.302l-2.128 1.548-11.782-16.198 2.128-1.548zm-20.793 6.983a.99.99 0 0 1 .215-1.363l10.584-7.698a.989.989 0 0 1 1.363.215l16.611 22.837.001.002 2.915 4.007a.989.989 0 0 1-.215 1.363l-10.584 7.699a.983.983 0 0 1-1.363-.215L91.057 55.073zm4.399 11.577 5.469 7.52C92.465 82.02 80.6 90.7 70.23 96.494l-5.47-7.519c8.438-7.83 20.311-16.524 30.696-22.326zm-43.584 43.447v5.162a2.768 2.768 0 0 1-1.26-.966l-8.825-12.134c-.838-1.152-.65-2.634.267-3.302l2.128-1.547 7.971 10.959a6.167 6.167 0 0 0-.28 1.828zm8.042 17.517h-2.631c-1.17 0-2.159-1.15-2.159-2.513v-15.004c0-.568.188-1.181.56-1.663.442-.575 1.04-.85 1.599-.85h2.631v20.03zm0-26.614v3.332h-2.631a5.12 5.12 0 0 0-.393.017l-.069.006a5.177 5.177 0 0 0-2.71 1.076L44.29 91.927a3.274 3.274 0 0 1 .72-4.567l6.874-5a3.282 3.282 0 0 1 4.568.72l9.959 13.692h-2.268A4.233 4.233 0 0 0 59.914 101zm18.292 33.198a.989.989 0 0 1-.976.976H64.142a.989.989 0 0 1-.975-.976v-33.197c0-.529.447-.976.975-.976H77.23c.53 0 .976.447.976.976v33.197zm59.5 0a.99.99 0 0 1-.976.976h-13.088a.988.988 0 0 1-.975-.976v-33.197c0-.529.446-.976.975-.976h13.088a.99.99 0 0 1 .976.976v33.197z" fill="#3B8E87"/></g><defs><clipPath id="a"><path fill="#fff" transform="translate(38 35)" d="M0 0h111v111H0z"/></clipPath></defs></svg>