<svg width="95" height="97" viewBox="0 0 95 97" fill="none" xmlns="http://www.w3.org/2000/svg"><path d="M18.473 84.114c-.171-.102-.343-.203-.499-.315-1.3-.896-2.208-2.918-2.632-5.85-1.533-10.703 3.58-30.697 11.173-43.665l.822-1.416c1.29-2.2 2.662-4.557 4.12-6.94 2.329 1.737 4.582 3.778 6.438 6.151 4.427 5.647 18.62 18.803 3.877 33.69-6.09 6.151-18.953 13.56-23.299 18.345z" fill="#9CC32F"/><path d="M57.846 75.927c-9.867 5.489-18.1 8.386-24.615 9.521 12.923-10.55 24.716-26.934 24.676-22.962-.03 2.449.368 7.545-.06 13.441z" fill="#4B6B7E"/><path d="M55.8 3.327a1.609 1.609 0 0 1-.046-.738c-8.002 1.273-14.975 9.19-20.819 17.897 2.708 2.29 5.648 4.78 8.779 7.28 11.203 8.962 15.403 3.992 16.774-.3 2.98-9.328-3.822-21.43-4.689-24.139zM53.907 28.2c-2.984.876-6.317-1.588-7.447-5.504-1.129-3.915.369-7.8 3.353-8.676 2.98-.88 6.313 1.584 7.447 5.5 1.13 3.915-.373 7.805-3.353 8.68z" fill="#3B8E87"/><path d="M71.903 9.07c8.364 7.872 13.447 16.63 14.692 25.326 1.916 13.36-4.971 25.778-19.946 36.129-.116-6.324-.494-12.658-.433-18.467.14-14.017.973-22.82.958-30.493-.016-6.278.605-12.703-1.044-16.853 1.9 1.074 3.822 2.52 5.773 4.358z" fill="#9CC32F"/><path d="M23.54 8.79c2.103-2.647 4.473-4.098 7.05-4.297 3.72-.29 7.794.637 12.13 2.668-3.509 3.305-6.715 7.444-9.63 11.762-4.437-3.738-8.158-6.752-10.936-8.126.439-.718.903-1.39 1.387-2.007zm5.95 15.754a390.346 390.346 0 0 0-4.214 7.097l-.827 1.41c-3.116 5.326-5.799 11.675-7.81 18.11-1.22-12.316-.46-23.685 2.027-32.178 2.288.881 6.534 2.71 10.825 5.56zm23.92 68.648a2.075 2.075 0 0 1-.076.158c-5.44-.285-11.849-1.914-18.01-5.824 6.182-1.294 13.603-4.018 22.245-8.692-.564 4.766-1.75 9.842-4.16 14.358zm11.46-1.608c1.451-5.616 1.82-11.843 1.804-18.167 7.921-5.27 13.86-11.217 17.657-17.586a34.04 34.04 0 0 1 .706 3.493c2.536 17.703-11.042 28.543-20.168 32.26z" fill="#E64B3B"/><path d="M53.575.588c-3.16.855-6.136 2.576-8.924 4.872-3.696-1.853-7.235-2.988-10.578-3.324A46.577 46.577 0 0 1 53.575.588zM20.803 8.465a28.045 28.045 0 0 0-2.249 3.935c-.928 1.431-1.633 3.32-1.815 4.598l-.045.137c-4.049 2.083-8.219 5.357-11.582 9.287 3.65-7.27 9.02-13.416 15.69-17.957zM.398 55.067A47.512 47.512 0 0 1 0 51.014c.797 1.726 1.83 3.442 3.11 5.133 2.97 3.91 6.43 7.026 10.18 9.52-.675 4.756-.821 9.12-.322 12.628.232 1.583.595 2.938 1.079 4.088C6.802 75.153 1.916 65.632.398 55.067zm52.079 40.936c-7.124.769-14.385-.112-21.312-2.668a46.986 46.986 0 0 1-5.647-2.515 46.655 46.655 0 0 0 3.882-2.46 42.368 42.368 0 0 0 2.506-.244c.57.412 1.13.81 1.674 1.171 6.413 4.19 13.129 6.008 18.927 6.416-.01.106-.025.208-.03.3zM94.33 39.89c-1.472-2.378-3.378-4.578-5.486-6.59-1.34-8.044-5.702-16.063-12.705-23.41 9.479 7.22 16.063 17.866 18.191 30zm-2.173 24.815c-2.37 6.543-6.035 12.358-10.73 17.18 3.268-4.257 5.683-9.507 6.207-15.744 2.39-1.853 4.337-3.768 5.854-5.738a49.788 49.788 0 0 1-1.331 4.302z" fill="#4B6B7E"/><path d="M13.709 63.05a39.317 39.317 0 0 1-8.692-8.375C2.56 51.437 1.079 48.138.61 44.88c-1.492-10.392 7.2-18.843 15.055-24.062-2.374 9.77-2.712 22.438-.751 36.109v.005c.01.086.025.173.035.254a89.971 89.971 0 0 0-1.24 5.866zm74.026-.122a31.771 31.771 0 0 0-.328-3.95c-.287-2.027-.777-4.089-1.442-6.177 2.405-5.005 3.53-10.234 3.297-15.57 3.177 3.554 5.103 7.164 5.602 10.652.756 5.25-1.654 10.3-7.13 15.045z" fill="#3B8E87"/></svg>