<svg width="172" height="151" viewBox="0 0 172 151" fill="none" xmlns="http://www.w3.org/2000/svg"><path fill-rule="evenodd" clip-rule="evenodd" d="M91.42 11.014c23.939-4.01 51.813-20.137 69.932-3.935 18.122 16.205 8.591 46.222 4.126 70.16-3.479 18.648-12.752 34.676-26.174 48.041-13.357 13.3-29.075 26.269-47.885 25.702-18.46-.556-30.7-16.891-45.091-28.504C28.879 108.397 1.175 99.676.038 77.24-1.101 54.709 23.273 40.368 41.5 27.158c14.733-10.677 31.993-13.14 49.92-16.144z" fill="#80B8DA" fill-opacity=".1"/><path d="M90 124.297a1.349 1.349 0 0 1-1.351-1.351V86.189a1.351 1.351 0 1 1 2.702 0v36.757A1.35 1.35 0 0 1 90 124.297zm0-55.135a1.351 1.351 0 0 1-1.351-1.351V31.054a1.351 1.351 0 1 1 2.702 0v36.757A1.352 1.352 0 0 1 90 69.162z" fill="#80B8DA"/><path d="M90 45.501c-.358 0-.702-.142-.955-.396l-7.838-7.838a1.352 1.352 0 0 1 1.91-1.91L90 42.239l6.88-6.88a1.352 1.352 0 0 1 1.91 1.911l-7.837 7.838a1.351 1.351 0 0 1-.953.393zm0 11.837c-.359 0-.702-.143-.956-.396l-7.837-7.838a1.35 1.35 0 1 1 1.91-1.91L90 54.075l6.88-6.88a1.35 1.35 0 1 1 1.91 1.91l-7.837 7.839a1.352 1.352 0 0 1-.953.393zm7.838 61.698a1.35 1.35 0 0 1-.956-.396L90 111.761l-6.88 6.879a1.349 1.349 0 0 1-1.894-.016 1.353 1.353 0 0 1-.017-1.894l7.838-7.838a1.349 1.349 0 0 1 1.911 0l7.838 7.838a1.35 1.35 0 0 1-.956 2.306h-.002zm0-11.835a1.35 1.35 0 0 1-.956-.396L90 99.925l-6.88 6.879a1.352 1.352 0 0 1-1.91-1.911l7.837-7.838a1.351 1.351 0 0 1 1.911 0l7.838 7.838a1.352 1.352 0 0 1-.956 2.307l-.002.001zM80.81 78.351H44.055a1.352 1.352 0 0 1 0-2.702h36.757a1.352 1.352 0 0 1 0 2.702zm55.136 0H99.189a1.351 1.351 0 0 1 0-2.702h36.757a1.35 1.35 0 0 1 0 2.702z" fill="#80B8DA"/><path d="M130.685 86.19a1.35 1.35 0 0 1-.955-.397l-7.838-7.838a1.353 1.353 0 0 1 0-1.91l7.838-7.838a1.351 1.351 0 0 1 1.911 1.91L124.761 77l6.88 6.88a1.356 1.356 0 0 1 .292 1.472 1.35 1.35 0 0 1-1.248.834v.003zm-11.835 0a1.35 1.35 0 0 1-.955-.397l-7.838-7.838a1.349 1.349 0 0 1 0-1.91l7.838-7.838a1.35 1.35 0 0 1 2.29.96 1.35 1.35 0 0 1-.38.95L112.924 77l6.88 6.88a1.35 1.35 0 0 1-.955 2.306l.001.003zm-69.535 0a1.35 1.35 0 0 1-.956-2.308L55.24 77l-6.88-6.88a1.352 1.352 0 0 1 1.911-1.91l7.838 7.837a1.352 1.352 0 0 1 0 1.911l-7.838 7.838a1.351 1.351 0 0 1-.955.393zm11.835 0a1.352 1.352 0 0 1-.956-2.308L67.076 77l-6.88-6.88a1.351 1.351 0 1 1 1.91-1.91l7.839 7.837a1.351 1.351 0 0 1 0 1.911l-7.838 7.838a1.352 1.352 0 0 1-.957.393zm61.34 24.652c-.358 0-.702-.143-.955-.396L95.54 84.454a1.353 1.353 0 0 1 1.914-1.914l25.992 25.995a1.35 1.35 0 0 1 .293 1.472 1.354 1.354 0 0 1-1.249.835zM83.501 71.853c-.358 0-.702-.143-.955-.396L56.554 45.465a1.352 1.352 0 0 1 1.91-1.911L84.46 69.546a1.35 1.35 0 0 1-.955 2.307h-.003z" fill="#80B8DA"/><path d="M66.773 55.124H55.692a1.351 1.351 0 0 1 0-2.702h9.73v-9.73a1.35 1.35 0 1 1 2.702 0v11.081a1.352 1.352 0 0 1-1.351 1.351zm8.362 8.362H64.054a1.351 1.351 0 1 1 0-2.702h9.73v-9.73a1.352 1.352 0 0 1 2.702 0v11.081a1.351 1.351 0 0 1-1.35 1.351zm38.092 49.175a1.352 1.352 0 0 1-1.351-1.352v-11.081a1.352 1.352 0 0 1 1.351-1.351h11.081a1.354 1.354 0 0 1 1.351 1.351 1.353 1.353 0 0 1-1.351 1.352h-9.73v9.729a1.352 1.352 0 0 1-1.351 1.352zm-8.362-8.364a1.35 1.35 0 0 1-1.352-1.351V91.865a1.354 1.354 0 0 1 1.352-1.352h11.081a1.35 1.35 0 0 1 0 2.703h-9.73v9.73a1.348 1.348 0 0 1-1.351 1.351zm-47.355 6.545a1.355 1.355 0 0 1-1.249-.835 1.348 1.348 0 0 1 .293-1.472L82.546 82.54a1.353 1.353 0 1 1 1.913 1.914l-25.994 25.992a1.353 1.353 0 0 1-.956.396zm38.989-38.989a1.352 1.352 0 0 1-.956-2.307l25.992-25.992a1.351 1.351 0 0 1 1.911 1.91L97.454 71.46a1.351 1.351 0 0 1-.955.394z" fill="#80B8DA"/><path d="M124.309 55.124h-11.081a1.35 1.35 0 0 1-1.351-1.351V42.692a1.349 1.349 0 0 1 1.351-1.351 1.352 1.352 0 0 1 1.352 1.35v9.73h9.729a1.352 1.352 0 1 1 0 2.703zm-8.363 8.362h-11.081a1.352 1.352 0 0 1-1.352-1.35V51.053a1.354 1.354 0 0 1 1.352-1.351 1.35 1.35 0 0 1 1.351 1.351v9.73h9.73a1.35 1.35 0 0 1 0 2.702zm-49.173 49.175a1.353 1.353 0 0 1-1.351-1.352v-9.729h-9.73a1.353 1.353 0 0 1-.956-2.307 1.35 1.35 0 0 1 .956-.396h11.081a1.351 1.351 0 0 1 1.351 1.351v11.081a1.35 1.35 0 0 1-1.351 1.352zm8.362-8.364a1.35 1.35 0 0 1-1.351-1.351v-9.73h-9.73a1.351 1.351 0 1 1 0-2.703h11.081a1.351 1.351 0 0 1 1.351 1.352v11.081a1.35 1.35 0 0 1-1.35 1.351zM90 87.54A10.54 10.54 0 1 1 100.54 77 10.551 10.551 0 0 1 90 87.54zm0-18.378A7.838 7.838 0 1 0 97.838 77 7.846 7.846 0 0 0 90 69.162z" fill="#80B8DA"/></svg>