<svg width="175" height="187" viewBox="0 0 175 187" fill="none" xmlns="http://www.w3.org/2000/svg"><path fill-rule="evenodd" clip-rule="evenodd" d="M87.348 1.522c19.918 4.146 29.769 25.541 45.177 38.849 13.655 11.793 33.386 17.76 39.876 34.611 6.602 17.14-.857 35.789-5.963 53.434-5.287 18.267-8.474 39.279-24.025 50.188-15.484 10.861-36.636 9.501-55.065 5.29-15.882-3.629-25.566-18.275-39.408-26.88-15.483-9.625-39.407-9.547-46.346-26.428-6.9-16.789 10.601-33.384 14.471-51.122 4.52-20.718-4.257-45.608 10.043-61.244C40.759 2.2 66.115-2.898 87.348 1.522z" fill="#FCD611" fill-opacity=".1"/><g clip-path="url(#a)" fill="#FCD611"><path d="M135.806 84.897a3.773 3.773 0 0 0-3.284-2.627l-29.351-2.722-5.818-13.51a1.406 1.406 0 1 0-2.583 1.112l6.149 14.277c.203.472.649.796 1.161.844l30.182 2.799a.981.981 0 0 1 .87.695.98.98 0 0 1-.295 1.074l-22.772 20.005c-.387.34-.557.864-.444 1.366l6.665 29.569a.981.981 0 0 1-.393 1.042.98.98 0 0 1-1.112.052l-26.063-15.476a1.405 1.405 0 0 0-1.436 0l-26.063 15.476a.98.98 0 0 1-1.112-.052.98.98 0 0 1-.393-1.042l3.44-15.263a1.406 1.406 0 1 0-2.743-.619l-3.44 15.264a3.772 3.772 0 0 0 1.483 3.935 3.772 3.772 0 0 0 4.2.195L88 126.241l25.345 15.05a3.827 3.827 0 0 0 1.958.546c.784 0 1.565-.248 2.242-.741a3.77 3.77 0 0 0 1.483-3.935l-6.481-28.755 22.146-19.454a3.772 3.772 0 0 0 1.113-4.055z"/><path d="m94.769 60.036-3.256-7.561A3.773 3.773 0 0 0 88 50.163a3.773 3.773 0 0 0-3.513 2.312L72.828 79.548l-29.35 2.722a3.774 3.774 0 0 0-3.284 2.626 3.773 3.773 0 0 0 1.113 4.056l22.145 19.454-1.686 7.48a1.407 1.407 0 0 0 2.744.618l1.869-8.294a1.406 1.406 0 0 0-.444-1.366L43.163 86.839a.98.98 0 0 1-.294-1.074.98.98 0 0 1 .869-.695l30.181-2.799a1.407 1.407 0 0 0 1.162-.844l11.989-27.84a.98.98 0 0 1 .93-.612c.2 0 .692.06.93.612l3.256 7.562a1.406 1.406 0 0 0 2.583-1.113z"/></g><defs><clipPath id="a"><path fill="#fff" transform="translate(40 48)" d="M0 0h96v96H0z"/></clipPath></defs></svg>