<svg width="161" height="191" viewBox="0 0 161 191" fill="none" xmlns="http://www.w3.org/2000/svg"><path fill-rule="evenodd" clip-rule="evenodd" d="M81.947 1.696c21.25 4.201 34.86 23.576 49.834 39.26 12.236 12.815 25.858 25.641 28.826 43.128 2.786 16.42-10.03 30.537-13.563 46.813-4.138 19.063 7.188 45.333-8.841 56.403-16.151 11.154-37.425-5.947-56.256-11.446-13.056-3.812-25.41-7.924-36.6-15.669-11.463-7.935-21.339-17.283-28.4-29.32C8.184 115.926.327 100.372.097 83.045c-.306-22.852-.85-49 15.341-65.092C32.048 1.446 58.998-2.84 81.948 1.696z" fill="#4B6B7E" fill-opacity=".1"/><g clip-path="url(#a)" fill="#4B6B7E"><path d="M128.463 78.912c2.338 2.902 1.997 7.434-.936 9.857-2.692 2.222-6.433 1.73-8.566-.92-9.753-12.12-23.715-19.071-38.308-19.071h-.22c-14.68.07-28.659 7.152-38.354 19.432-2.124 2.694-5.87 3.177-8.55 1.006-2.985-2.42-3.326-6.951-1.032-9.854C44.23 64.506 61.36 55.25 80.368 55.16h.277c9.202 0 18.09 2.123 26.421 6.308a1.449 1.449 0 1 1-1.302 2.591c-7.922-3.98-16.373-5.998-25.119-5.998h-.265c-17.454.083-34.08 8.502-45.608 23.1-1.38 1.746-1.07 4.461.579 5.797 1.43 1.16 3.33.878 4.453-.543C50.048 73.436 64.85 65.951 80.417 65.877h.236c15.474 0 30.261 7.346 40.568 20.154 1.14 1.416 3.044 1.67 4.454.507 1.653-1.365 1.918-4.082.529-5.807-4.261-5.294-9.213-9.795-14.718-13.382a1.451 1.451 0 1 1 1.584-2.43c5.762 3.752 10.94 8.46 15.393 13.993z"/><path d="M112.59 91.569c2.581 2.939 2.224 7.65-.739 10.095-2.564 2.118-6.189 1.785-8.44-.771-6.067-6.89-14.16-10.68-22.8-10.68h-.14c-8.693.041-16.805 3.91-22.84 10.895-2.225 2.575-5.849 2.944-8.428.854l-.004-.004c-2.987-2.42-3.384-7.127-.833-10.087 8.136-9.446 19.525-15.216 32.041-15.276 12.598-.056 24.014 5.666 32.183 14.974zm-2.589 7.862c1.711-1.414 1.91-4.24.41-5.95-7.92-9.024-18.501-13.985-29.808-13.985h-.18c-11.378.054-21.981 5.12-29.859 14.266-.72.835-1.071 1.982-.967 3.146.1 1.123.621 2.142 1.427 2.796 0 0 0 .002.002.002l.002.002c1.358 1.098 3.212.891 4.409-.497 6.591-7.628 15.476-11.853 25.02-11.897h.153c9.487 0 18.352 4.137 24.979 11.663 1.21 1.374 3.066 1.566 4.412.454z"/><path d="M96.183 104.048c1.458 1.28 2.296 3.187 2.296 5.229 0 2.148-.903 4.126-2.478 5.426-2.378 1.964-5.595 1.775-7.811-.141-1.305-1.13-2.769-1.948-4.353-2.427a1.45 1.45 0 0 1 .842-2.777c1.974.6 3.795 1.613 5.408 3.009 1.195 1.033 2.829 1.124 4.068.101 1.862-1.539 1.899-4.674.114-6.24-3.948-3.465-8.691-5.296-13.713-5.296h-.093c-5.06.023-9.816 1.9-13.761 5.426-1.798 1.606-1.667 4.747.174 6.237 1.24 1.004 2.873.915 4.064-.137 1.83-1.613 4.005-2.759 6.292-3.312a1.451 1.451 0 0 1 .683 2.819c-1.83.443-3.58 1.365-5.056 2.669-2.22 1.958-5.436 2.138-7.808.214-3.282-2.657-3.365-7.895-.283-10.652 4.417-3.949 9.985-6.137 15.68-6.165h.108c5.654 0 11.205 2.137 15.627 6.017zM80.5 120.801c4.134 0 7.495 3.374 7.495 7.52 0 4.147-3.361 7.519-7.495 7.519-4.132 0-7.495-3.372-7.495-7.519 0-4.146 3.363-7.52 7.495-7.52zm4.594 7.52c0-2.547-2.061-4.62-4.594-4.62-2.533 0-4.594 2.073-4.594 4.62 0 2.548 2.061 4.619 4.594 4.619 2.533 0 4.594-2.071 4.594-4.619z"/></g><defs><clipPath id="a"><path fill="#fff" transform="translate(31 46)" d="M0 0h99v99H0z"/></clipPath></defs></svg>