<svg width="75" height="75" viewBox="0 0 75 75" fill="none" xmlns="http://www.w3.org/2000/svg">
<mask id="mask0" mask-type="alpha" maskUnits="userSpaceOnUse" x="0" y="0" width="75" height="75">
<rect width="75" height="75" fill="white"/>
</mask>
<g mask="url(#mask0)">
</g>
<g clip-path="url(#clip0)">
<path d="M69.0175 19.2994C68.6499 18.6671 67.839 18.4525 67.2066 18.8202L60.7385 22.5591C60.1062 22.9268 59.8916 23.7376 60.2593 24.37C60.627 25.0024 61.4378 25.2169 62.0702 24.8493L68.5383 21.1103C69.1706 20.7425 69.3852 19.9318 69.0175 19.2994Z" fill="#FFD466"/>
<path d="M68.5383 53.8971L62.0702 50.1582C61.4378 49.7906 60.627 50.0051 60.2593 50.6375C59.8916 51.2698 60.1062 52.0807 60.7385 52.4484L67.2066 56.1873C67.839 56.555 68.6499 56.3404 69.0175 55.7081C69.3852 55.0755 69.1706 54.2648 68.5383 53.8971Z" fill="#FFD466"/>
<path d="M37.6022 63.6725C36.8687 63.6179 36.2301 64.1684 36.1756 64.9019C36.1707 64.9675 36.1707 65.0334 36.1756 65.0991V72.5696C36.1211 73.3031 36.6715 73.9417 37.405 73.9962C38.1385 74.0507 38.7771 73.5003 38.8316 72.7667C38.8366 72.7011 38.8366 72.6352 38.8316 72.5696V65.0991C38.8859 64.3657 38.3355 63.727 37.6022 63.6725Z" fill="#FFD466"/>
<path d="M14.2619 22.5591L7.79383 18.8202C7.16147 18.4525 6.35058 18.6671 5.98291 19.2994C5.61524 19.9318 5.82981 20.7427 6.46217 21.1103L12.9303 24.8493C13.5626 25.2169 14.3735 25.0024 14.7412 24.37C15.1089 23.7375 14.8943 22.9268 14.2619 22.5591Z" fill="#FFD466"/>
<path d="M37.6022 1.00366C36.8687 0.949152 36.2301 1.49956 36.1756 2.23308C36.1706 2.29874 36.1706 2.3646 36.1756 2.43026V9.90077C36.1796 10.6304 36.7703 11.2211 37.4999 11.2251C38.2354 11.2251 38.8316 10.629 38.8316 9.89345V2.43045C38.8859 1.69693 38.3355 1.05817 37.6022 1.00366Z" fill="#FFD466"/>
<path d="M24.8421 12.9301L21.1105 6.46203C20.7428 5.82967 19.9319 5.6151 19.2996 5.98278C18.6672 6.35045 18.4526 7.16134 18.8203 7.79369L22.5519 14.2618C22.9196 14.8941 23.7305 15.1087 24.3628 14.741C24.9952 14.3732 25.2098 13.5625 24.8421 12.9301Z" fill="#FFD466"/>
<path d="M37.6975 25.6834C37.6318 25.6784 37.566 25.6784 37.5003 25.6834C30.974 25.6834 25.6836 30.9738 25.6836 37.5001C25.6836 38.2356 26.2797 38.8318 27.0153 38.8318C27.7479 38.8277 28.3396 38.2327 28.3396 37.5001C28.3356 32.4449 32.4305 28.3434 37.4857 28.3394C37.4906 28.3394 37.4954 28.3394 37.5003 28.3394C38.2338 28.3939 38.8724 27.8435 38.9269 27.11C38.9814 26.3765 38.431 25.7377 37.6975 25.6834Z" fill="#FFD466"/>
<path d="M73.7992 37.3977C73.7504 36.7401 73.2276 36.2171 72.5698 36.1682H65.0993C64.3658 36.1137 63.7272 36.6641 63.6727 37.3977C63.6182 38.1312 64.1686 38.7698 64.9021 38.8243C64.9678 38.8292 65.0338 38.8292 65.0995 38.8243H72.57C73.3033 38.7699 73.8537 38.1312 73.7992 37.3977Z" fill="#FFD466"/>
<path d="M10.0981 36.1757C10.0324 36.1708 9.96657 36.1708 9.9009 36.1757H2.4304C1.69689 36.2303 1.14648 36.869 1.20099 37.6023C1.24983 38.26 1.77262 38.7829 2.4304 38.8318H9.9009C10.6344 38.8863 11.273 38.3359 11.3275 37.6023C11.382 36.8688 10.8316 36.2301 10.0981 36.1757Z" fill="#FFD466"/>
<path d="M37.5055 17.9568C26.7121 17.9553 17.9611 26.7039 17.9595 37.4973C17.9587 42.6826 20.0188 47.6557 23.6858 51.3216C27.3459 54.9908 32.3175 57.05 37.5 57.0434C48.2935 57.0448 57.0446 48.2963 57.0461 37.5028C57.0475 26.7094 48.299 17.9583 37.5055 17.9568ZM49.4411 49.4631C42.8463 56.058 32.1538 56.058 25.5589 49.4631C22.3865 46.2907 20.6069 41.9864 20.6127 37.5001C20.6063 33.02 22.3865 28.7222 25.5589 25.559V25.5809C32.1538 18.9861 42.8463 18.9861 49.4411 25.5809C56.0362 32.1758 56.0362 42.8683 49.4411 49.4631Z" fill="#FFD466"/>
<path d="M56.1835 67.2123C56.1824 67.2103 56.1813 67.2083 56.18 67.2065L52.4411 60.7384C52.0734 60.106 51.2625 59.8915 50.6301 60.2591C49.9978 60.6268 49.7832 61.4377 50.1509 62.0701L53.8898 68.5381C54.256 69.1698 55.0645 69.3858 55.6971 69.0211C56.3309 68.6558 56.5488 67.846 56.1835 67.2123Z" fill="#FFD466"/>
<path d="M55.7449 5.98278C55.1125 5.6151 54.3016 5.82967 53.9339 6.46203L50.195 12.9301C49.8248 13.561 50.0363 14.3725 50.667 14.7425C50.6683 14.7432 50.6694 14.744 50.6706 14.7447C51.3024 15.1131 52.1133 14.8996 52.4817 14.2676C52.4828 14.2656 52.4841 14.2636 52.4852 14.2618L56.2241 7.7937C56.5918 7.16115 56.3772 6.35045 55.7449 5.98278Z" fill="#FFD466"/>
<path d="M24.3701 60.2591C23.7378 59.8915 22.9269 60.106 22.5592 60.7384L18.8203 67.2065C18.4526 67.8388 18.6672 68.6497 19.2996 69.0174C19.9319 69.3851 20.7428 69.1705 21.1105 68.5381L24.8494 62.0701C25.2171 61.4375 25.0025 60.6268 24.3701 60.2591Z" fill="#FFD466"/>
<path d="M14.7412 50.6302C14.3735 49.9978 13.5626 49.7832 12.9303 50.1509L6.46217 53.8898C5.82981 54.2575 5.61524 55.0684 5.98291 55.7008C6.35058 56.3331 7.16147 56.5477 7.79383 56.18L14.2619 52.4411C14.8943 52.0732 15.1089 51.2625 14.7412 50.6302Z" fill="#FFD466"/>
</g>
<defs>
<clipPath id="clip0">
<rect width="73" height="73" fill="white" transform="translate(1 1)"/>
</clipPath>
</defs>
</svg>
