<svg width="75" height="75" viewBox="0 0 75 75" fill="none" xmlns="http://www.w3.org/2000/svg">
<mask id="mask0" mask-type="alpha" maskUnits="userSpaceOnUse" x="0" y="0" width="75" height="75">
<rect width="75" height="75" fill="white"/>
</mask>
<g mask="url(#mask0)">
</g>
<path d="M37.4873 49.8603C40.0572 49.8603 42.1481 47.7696 42.1481 45.1997C42.1481 42.6298 40.0574 40.5389 37.4873 40.5389C34.9174 40.5389 32.8267 42.6296 32.8267 45.1997C32.8268 47.7696 34.9176 49.8603 37.4873 49.8603ZM37.4873 42.6777C38.878 42.6777 40.0093 43.809 40.0093 45.1997C40.0093 46.5903 38.878 47.7215 37.4873 47.7215C36.0967 47.7215 34.9655 46.5902 34.9655 45.1997C34.9655 43.8092 36.0967 42.6777 37.4873 42.6777Z" fill="#E64B3B"/>
<path d="M58.1627 15.448C62.4218 15.448 65.8868 11.9831 65.8868 7.72416C65.887 3.46493 62.4218 0 58.1627 0C53.9037 0 50.439 3.46493 50.439 7.72401C50.439 11.983 53.9039 15.448 58.1627 15.448ZM58.1627 2.13881C61.2425 2.13881 63.748 4.64433 63.748 7.72401C63.748 10.8037 61.2425 13.3091 58.1627 13.3091C55.0831 13.3091 52.5778 10.8037 52.5778 7.72401C52.5778 4.64433 55.0831 2.13881 58.1627 2.13881Z" fill="#E64B3B"/>
<path d="M69.6063 27.3363C69.0156 27.3363 68.537 27.8149 68.537 28.4056V43.0384C68.537 43.4192 68.2272 43.7291 67.8465 43.7291H65.2373V24.8529C65.2373 24.2622 64.7587 23.7836 64.168 23.7836C63.5773 23.7836 63.0987 24.2622 63.0987 24.8529V70.1705C63.0987 70.5512 62.7888 70.861 62.4082 70.861H59.9229C59.5421 70.861 59.2322 70.5512 59.2322 70.1705V53.1582C59.2322 52.5676 58.7536 52.0888 58.1629 52.0888C57.5722 52.0888 57.0936 52.5676 57.0936 53.1582V70.1705C57.0936 70.5512 56.7837 70.861 56.4031 70.861H53.9178C53.5371 70.861 53.2273 70.5512 53.2273 70.1705V24.8529C53.2273 24.2622 52.7487 23.7836 52.158 23.7836C51.5673 23.7836 51.0886 24.2622 51.0886 24.8529V43.7292H48.4794C48.0989 43.7292 47.7891 43.4195 47.7889 43.0394V24.8496C47.7889 21.3375 50.6462 18.4802 54.1583 18.4802H62.1681C65.6802 18.4802 68.5374 21.3375 68.5374 24.8496C68.5374 25.4403 69.0161 25.9189 69.6068 25.9189C70.1975 25.9189 70.6761 25.4403 70.6761 24.8496C70.6761 20.1582 66.8593 16.3414 62.1679 16.3414H54.1576C49.4662 16.3414 45.6494 20.1582 45.6494 24.8496V43.0398C45.6501 44.5995 46.9194 45.868 48.4787 45.868H51.0879V70.1705C51.0879 71.7306 52.3571 72.9999 53.9172 72.9999H56.4025C57.0676 72.9999 57.6788 72.7676 58.1625 72.3819C58.6461 72.7676 59.2573 72.9999 59.9226 72.9999H62.4079C63.968 72.9999 65.2372 71.7308 65.2372 70.1705V45.8679H67.8464C69.4064 45.8679 70.6757 44.5985 70.6757 43.0384V28.4056C70.6758 27.8149 70.197 27.3363 69.6063 27.3363Z" fill="#E64B3B"/>
<path d="M15.1175 21.9848C19.3766 21.9848 22.8417 18.5199 22.8417 14.2609C22.8417 10.0018 19.3766 6.53691 15.1175 6.53691C10.8586 6.53691 7.3938 10.0018 7.3938 14.2609C7.39394 18.5199 10.8586 21.9848 15.1175 21.9848ZM15.1175 8.67572C18.1973 8.67572 20.7029 11.1812 20.7029 14.2609C20.7029 17.3406 18.1973 19.846 15.1175 19.846C12.038 19.846 9.53261 17.3406 9.53261 14.2609C9.53275 11.1812 12.0381 8.67572 15.1175 8.67572Z" fill="#E64B3B"/>
<path d="M18.6345 22.9888H11.6013C7.40989 22.9888 4 26.3987 4 30.5901V46.5624C4.00043 48.0035 5.17327 49.176 6.61473 49.176H6.6471L5.90684 55.9133C5.87376 56.2155 5.97057 56.5174 6.17331 56.7437C6.3762 56.9701 6.66578 57.0994 6.96975 57.0994H8.7755V70.3853C8.7755 71.827 9.94863 73 11.3902 73H13.5725C14.151 73 14.6844 72.8089 15.1179 72.4897C15.5515 72.8089 16.0848 73 16.6635 73H18.8458C20.2875 73 21.4605 71.827 21.4605 70.3853V64.4804C21.4605 63.8897 20.9819 63.4111 20.3912 63.4111C19.8005 63.4111 19.3218 63.8897 19.3218 64.4804V70.3853C19.3218 70.6478 19.1084 70.8612 18.8459 70.8612H16.6636C16.4011 70.8612 16.1876 70.6478 16.1876 70.3853V58.9632C16.1876 58.3725 15.7089 57.8939 15.1182 57.8939C14.5275 57.8939 14.0489 58.3725 14.0489 58.9632V70.3853C14.0489 70.6478 13.8354 70.8612 13.573 70.8612H11.3901C11.1276 70.8612 10.9142 70.6478 10.9142 70.3853V57.0994H19.3214V61.0574C19.3214 61.648 19.8 62.1267 20.3907 62.1267C20.9814 62.1267 21.4601 61.648 21.4601 61.0574V57.0994H23.2657C23.5697 57.0994 23.8592 56.9701 24.062 56.7437C24.2649 56.5174 24.3617 56.2155 24.3286 55.9133L23.5883 49.176H23.6207C25.0625 49.176 26.2354 48.0033 26.2354 46.5614V30.5899C26.2354 26.3987 22.8256 22.9888 18.6345 22.9888ZM24.0968 46.5612C24.0966 46.8236 23.8832 47.037 23.6207 47.037H23.3534L21.3956 29.2211C21.3311 28.6342 20.8027 28.2122 20.2158 28.2749C19.6288 28.3393 19.2052 28.8676 19.2697 29.4546L22.0725 54.9605H21.066H20.3909H9.84484H8.96656H8.16313L10.9659 29.4546C11.0304 28.8676 10.6068 28.3393 10.0198 28.2749C9.43165 28.212 8.90439 28.6342 8.83995 29.2211L6.88221 47.037H6.61488C6.35253 47.037 6.1391 46.8237 6.13895 46.5618V30.5899C6.13895 27.578 8.58944 25.1275 11.6014 25.1275H18.6345C21.6463 25.1275 24.0968 27.578 24.0968 30.5899V46.5612Z" fill="#E64B3B"/>
<path d="M45.5918 46.3036C44.8266 46.3277 44.1162 46.6483 43.5924 47.2064L39.6042 51.4535H35.4759L31.4875 47.2062C30.4055 46.0545 28.5882 45.9973 27.4356 47.0791C26.2839 48.1609 26.2266 49.9784 27.3082 51.1307L31.9321 56.0548V70.2053C31.9321 71.7463 33.1858 72.9999 34.7268 72.9999H40.353C41.894 72.9999 43.1474 71.7463 43.1474 70.2053V64.337C43.1474 63.7463 42.6688 63.2676 42.0781 63.2676C41.4874 63.2676 41.0088 63.7463 41.0088 64.337V70.2053C41.0088 70.5669 40.7146 70.861 40.3532 70.861H38.559V61.9417C38.559 61.351 38.0803 60.8723 37.4896 60.8723C36.8991 60.8723 36.4203 61.351 36.4203 61.9417V70.861H34.7269C34.3653 70.861 34.0711 70.5669 34.0711 70.2053V55.6313C34.0711 55.3594 33.9674 55.0976 33.7813 54.8993L28.8678 49.6669C28.5932 49.3743 28.6078 48.9129 28.9 48.6383C29.1926 48.3637 29.654 48.3784 29.9286 48.6707L34.2335 53.2551C34.4356 53.4704 34.7176 53.5924 35.0131 53.5924H40.067C40.3623 53.5924 40.6445 53.4703 40.8466 53.2551L45.1515 48.6707C45.4262 48.3781 45.8876 48.3638 46.1798 48.6382C46.4723 48.9129 46.4867 49.3743 46.2123 49.6667L41.2985 54.8992C41.1121 55.0975 41.0086 55.3593 41.0086 55.6312V60.7721C41.0086 61.3627 41.4872 61.8414 42.0779 61.8414C42.6686 61.8414 43.1473 61.3627 43.1473 60.7721V56.0546L47.7714 51.1307C48.8531 49.9785 48.7958 48.1611 47.6438 47.0789C47.086 46.5549 46.3578 46.2811 45.5918 46.3036Z" fill="#E64B3B"/>
</svg>
