<svg width="75" height="75" viewBox="0 0 75 75" fill="none" xmlns="http://www.w3.org/2000/svg">
<mask id="mask0" mask-type="alpha" maskUnits="userSpaceOnUse" x="0" y="0" width="75" height="75">
<rect width="75" height="75" fill="white"/>
</mask>
<g mask="url(#mask0)">
</g>
<g clip-path="url(#clip0)">
<path d="M70.3595 23.6086L49.1726 15.5311C48.6588 15.3353 48.0838 15.593 47.888 16.1062C47.6922 16.6199 47.9498 17.195 48.4636 17.3908L67.2117 24.5384L54.2331 29.4871L37.9105 22.0966C37.4095 21.8696 36.8201 22.092 36.5937 22.5924C36.3667 23.0934 36.5891 23.6827 37.0895 23.9097L51.6134 30.4859L37.5 35.8665L7.78828 24.5384L37.5 13.2104L44.822 16.0024C45.3347 16.1977 45.9103 15.9406 46.1066 15.4268C46.3023 14.9136 46.0447 14.3386 45.531 14.1428L37.8548 11.2158C37.6263 11.1289 37.3737 11.1284 37.1452 11.2158L4.6405 23.6086C4.25507 23.7558 4 24.1259 4 24.5384V29.0827C4 29.4953 4.25507 29.8653 4.6405 30.0126L14.7908 33.8821V37.3305C14.7908 37.88 15.236 38.3257 15.7855 38.3257C16.3355 38.3257 16.7808 37.88 16.7808 37.3305V34.6412L37.1452 42.4053C37.2598 42.4488 37.3799 42.4708 37.5 42.4708C37.6201 42.4708 37.7402 42.4488 37.8548 42.4053L53.2052 36.553V52.3011C48.3859 54.8309 42.9818 56.1865 37.5 56.1865C30.0185 56.1865 22.6802 53.6644 16.7808 49.0746V41.3109C16.7808 40.7614 16.3355 40.3157 15.7855 40.3157C15.236 40.3157 14.7908 40.7614 14.7908 41.3109V49.5566C14.7908 49.8587 14.9278 50.1445 15.1634 50.3331C21.4769 55.3911 29.4097 58.1765 37.5 58.1765C42.9562 58.1765 48.3399 56.9077 53.2052 54.5313V58.5588C51.6016 58.9969 50.4193 60.4655 50.4193 62.206C50.4193 64.2906 52.1154 65.9871 54.1999 65.9871C56.285 65.9871 57.981 64.2906 57.981 62.206C57.981 60.4655 56.7987 58.9969 55.1952 58.5588V53.4803C56.8171 52.5577 58.371 51.5077 59.8371 50.3331C60.0727 50.1445 60.2102 49.8587 60.2102 49.5566V33.8816L70.3595 30.012C70.7449 29.8653 71 29.4953 71 29.0822V24.5384C71 24.1259 70.7449 23.7558 70.3595 23.6086ZM55.991 62.206C55.991 63.1931 55.1875 63.9966 54.1999 63.9966C53.2128 63.9966 52.4093 63.1931 52.4093 62.206C52.4093 61.2184 53.2128 60.4149 54.1999 60.4149C55.1875 60.4149 55.991 61.2184 55.991 62.206ZM5.98998 25.983L36.5048 37.6172V40.031L5.98998 28.3967V25.983ZM38.4952 40.031V37.6172L53.2052 32.0087V34.4229L38.4952 40.031ZM58.2197 49.0741C57.249 49.8296 56.2384 50.5278 55.1952 51.1688V35.7939L58.2197 34.6407V49.0741ZM55.1952 33.6638V31.2501L69.01 25.983V28.3967L55.1952 33.6638Z" fill="#4B6B7E"/>
</g>
<defs>
<clipPath id="clip0">
<rect width="67" height="67" fill="white" transform="translate(4 5)"/>
</clipPath>
</defs>
</svg>
