<svg width="180" height="148" viewBox="0 0 180 148" fill="none" xmlns="http://www.w3.org/2000/svg">
<path fill-rule="evenodd" clip-rule="evenodd" d="M97.0928 0.339657C110.58 -0.898031 123.808 1.34256 136.698 5.50287C151.993 10.4395 173.771 11.606 179.043 26.7904C184.696 43.0694 163.583 57.1528 160.522 74.1116C158.203 86.9634 167.256 99.9714 163.576 112.501C159.54 126.241 152.585 142.035 139.13 146.934C125.344 151.953 111.732 137.679 97.0928 136.707C83.8173 135.825 71.2675 143.835 58.1594 141.556C41.9852 138.744 24.4966 134.656 13.7754 122.222C2.69461 109.371 -0.158463 91.0808 0.00667334 74.1116C0.170986 57.2271 2.79106 38.5008 14.7066 26.5388C26.3992 14.8005 45.6843 17.4266 61.4723 12.406C73.6261 8.54103 84.3928 1.50507 97.0928 0.339657Z" fill="#9CC32F" fill-opacity="0.1"/>
<g clip-path="url(#clip0)">
<path d="M136.09 34.3784L117.469 26.6206C115.426 25.7699 113.084 25.7701 111.041 26.6209L102.101 30.3447C101.302 30.6779 100.924 31.5953 101.257 32.3945C101.59 33.1936 102.507 33.5719 103.306 33.2388L112.247 29.5147C113.523 28.983 114.987 28.9828 116.264 29.5145L134.884 37.2717C136.695 38.0272 137.865 39.7261 137.865 41.5992V108.631C137.865 111.238 135.626 113.358 132.875 113.358H130.334C129.468 113.358 128.766 114.06 128.766 114.926C128.766 115.791 129.468 116.493 130.334 116.493H132.875C137.355 116.493 141 112.966 141 108.631V41.5992C141 38.4569 139.073 35.6226 136.09 34.3784Z" fill="#9CC32F"/>
<path d="M123.502 113.358H97.1655C98.2499 112.126 98.8437 110.562 98.8437 108.907C98.8437 107.255 98.2458 105.742 97.2564 104.568C97.8803 104.25 98.4579 103.833 98.9678 103.324C100.241 102.05 100.942 100.357 100.942 98.556C100.942 96.839 100.296 95.2707 99.2351 94.0791C99.7603 93.7817 100.249 93.4131 100.687 92.9746C101.96 91.7017 102.662 90.0087 102.662 88.2071C102.662 86.4951 102.019 84.9308 100.965 83.7402C101.499 83.4406 101.996 83.0673 102.442 82.6224C103.714 81.3472 104.415 79.6546 104.415 77.8559C104.415 74.1372 101.391 71.1119 97.6729 71.1119H90.6448V41.5992C90.6448 39.7258 91.8153 38.027 93.6255 37.2719L96.4763 36.0849C97.2755 35.7522 97.6535 34.8348 97.3208 34.0354C96.9879 33.2362 96.0704 32.8576 95.2713 33.1909L92.4195 34.3783C89.4371 35.6224 87.51 38.4569 87.51 41.5992V71.1122H80.9611C83.1418 64.2207 82.9563 57.0285 80.4113 48.681C80.0246 47.4169 79.2556 46.3341 78.1866 45.5498C77.1239 44.7703 75.8646 44.358 74.5444 44.358C72.8437 44.358 71.2623 45.0372 70.0912 46.2704C68.9207 47.5034 68.3246 49.1176 68.4128 50.8154C68.9029 60.24 64.5556 63.4838 58.5387 67.9738C56.5578 69.452 54.3927 71.0687 52.2648 73.0513V70.997C52.2648 70.1312 51.5633 69.4296 50.6974 69.4296H35.5674C34.7016 69.4296 34 70.1312 34 70.997V115.45C34 116.316 34.7016 117.017 35.5674 117.017H50.6979C51.5637 117.017 52.2652 116.316 52.2652 115.45V111.507C55.2422 111.79 57.4165 112.383 59.5289 114.002C60.9157 115.065 62.6252 115.651 64.3424 115.651H91.985C93.1144 116.201 94.3664 116.493 95.6356 116.493H123.502C124.367 116.493 125.069 115.791 125.069 114.926C125.069 114.06 124.367 113.358 123.502 113.358ZM61.4359 111.514C58.4804 109.25 55.3218 108.62 52.2652 108.356V90.0545C52.2652 89.1887 51.5637 88.4871 50.6979 88.4871C49.832 88.4871 49.1305 89.1887 49.1305 90.0545V113.883H37.1348V72.5646H49.1305V83.2251C49.1305 84.0909 49.832 84.7925 50.6979 84.7925C51.5637 84.7925 52.2652 84.0909 52.2652 83.2251V77.5042C54.8872 74.6108 57.6946 72.5157 60.414 70.4865C66.4346 65.9939 72.121 61.7503 71.544 50.6528C71.5008 49.8221 71.7923 49.0323 72.3654 48.429C72.9384 47.8252 73.7125 47.493 74.5451 47.493C75.1935 47.493 75.8115 47.695 76.3325 48.0775C76.8527 48.4591 77.2265 48.9849 77.4138 49.597C80.0058 58.0995 79.9653 65.2531 77.2861 72.1096C77.0976 72.592 77.1597 73.1362 77.4516 73.564C77.7436 73.9917 78.228 74.2475 78.7459 74.2475H97.6734C99.6625 74.2475 101.281 75.8665 101.281 77.8567C101.281 78.8191 100.905 79.7254 100.226 80.4065C99.5423 81.0882 98.6361 81.4638 97.6734 81.4638H91.2346C90.3687 81.4638 89.6672 82.1653 89.6672 83.0312C89.6672 83.897 90.3687 84.5985 91.2346 84.5985H95.92C97.9089 84.5985 99.527 86.2175 99.527 88.2079C99.527 89.172 99.1521 90.0779 98.4708 90.759C97.79 91.4401 96.884 91.815 95.92 91.815H91.2346C90.3687 91.815 89.6672 92.5165 89.6672 93.3824C89.6672 94.2482 90.3687 94.9497 91.2346 94.9497H94.1998C96.1889 94.9497 97.8071 96.5679 97.8071 98.5568C97.8071 99.5207 97.432 100.427 96.7511 101.108C96.0686 101.79 95.1624 102.166 94.1998 102.166H92.1016H89.5144C88.6486 102.166 87.947 102.868 87.947 103.733C87.947 104.599 88.6486 105.301 89.5144 105.301H92.1016C94.0907 105.301 95.7089 106.919 95.7089 108.908C95.7089 109.872 95.3334 110.779 94.6542 111.46C94.0176 112.095 93.012 112.5 92.2594 112.513C92.2074 112.514 64.3424 112.517 64.3424 112.517C63.3109 112.516 62.2785 112.16 61.4359 111.514Z" fill="#9CC32F"/>
<path d="M119.912 42.2955C119.912 39.0019 117.232 36.3223 113.939 36.3223C110.645 36.3223 107.965 39.0019 107.965 42.2955C107.965 45.5891 110.645 48.2687 113.939 48.2687C117.232 48.2687 119.912 45.5891 119.912 42.2955ZM111.1 42.2955C111.1 40.7304 112.374 39.457 113.939 39.457C115.504 39.457 116.777 40.7304 116.777 42.2955C116.777 43.8605 115.504 45.1339 113.939 45.1339C112.374 45.1339 111.1 43.8608 111.1 42.2955Z" fill="#9CC32F"/>
<path d="M114.918 95.7768H112.107C110.626 95.7768 109.422 94.572 109.422 93.0913C109.422 92.2255 108.72 91.524 107.854 91.524C106.988 91.524 106.287 92.2255 106.287 93.0913C106.287 96.2464 108.811 98.8211 111.945 98.9074V102.376C111.945 103.242 112.646 103.943 113.512 103.943C114.378 103.943 115.08 103.242 115.08 102.376V98.9074C118.214 98.8211 120.738 96.2464 120.738 93.0913V90.9215C120.738 88.9083 119.452 87.138 117.537 86.5156L110.456 84.2158C109.837 84.0145 109.422 83.4423 109.422 82.7915V79.6846C109.422 78.4821 110.4 77.5036 111.602 77.5036H115.423C116.625 77.5036 117.603 78.4821 117.603 79.6846C117.603 80.5504 118.305 81.252 119.171 81.252C120.037 81.252 120.738 80.5504 120.738 79.6846C120.738 76.7536 118.354 74.3688 115.423 74.3688H115.08V70.9043C115.08 70.0385 114.378 69.3369 113.512 69.3369C112.646 69.3369 111.945 70.0385 111.945 70.9043V74.3688H111.602C108.671 74.3688 106.287 76.7534 106.287 79.6846V82.7915C106.287 84.8047 107.573 86.575 109.488 87.1971L116.568 89.497C117.187 89.6983 117.603 90.2707 117.603 90.9215V93.0913C117.603 94.572 116.399 95.7768 114.918 95.7768Z" fill="#9CC32F"/>
</g>
<defs>
<clipPath id="clip0">
<rect width="107" height="107" fill="white" transform="translate(34 18)"/>
</clipPath>
</defs>
</svg>
