<svg width="207" height="173" viewBox="0 0 207 173" fill="none" xmlns="http://www.w3.org/2000/svg">
<path fill-rule="evenodd" clip-rule="evenodd" d="M1.00621 98.7093C3.54801 79.8155 26.9698 72.3311 37.3575 56.3352C48.7172 38.8425 44.4673 8.49182 64.1376 1.49378C83.6625 -5.45252 101.827 15.7296 119.025 27.2808C131.689 35.7874 138.391 49.5562 150.154 59.2684C168.066 74.0581 199.551 76.285 205.534 98.7093C211.284 120.264 194.259 143.876 176.248 157.077C159.806 169.129 137.116 160.822 116.917 163.663C101.478 165.834 87.4382 173.983 72.0095 171.738C54.4422 169.182 37.0883 162.965 24.7234 150.247C11.2029 136.341 -1.57779 117.917 1.00621 98.7093Z" fill="#3B8E87" fill-opacity="0.1"/>
<g clip-path="url(#clip0)">
<path d="M147.374 114.868C148.272 114.868 149 114.14 149 113.242V110.097C149 106.919 146.573 104.332 143.589 104.332H140.958V101.001C140.958 98.6695 139.061 96.7729 136.73 96.7729H123.642C121.311 96.7729 119.414 98.6697 119.414 101.001V109.677C107.723 108.313 93.1693 108.311 81.4579 109.677V101.001C81.4579 98.6695 79.5612 96.7729 77.2302 96.7729H76.1961C85.1097 91.345 95.0782 83.9846 102.851 76.8162L107.954 83.8326C109.328 85.7209 111.979 86.1334 113.86 84.7648L124.445 77.0664C124.445 77.0664 124.445 77.0664 124.445 77.0661C126.33 75.6951 126.748 73.0457 125.377 71.1602L123.417 68.4658L125.545 66.9181C127.958 65.1629 128.399 61.6439 126.529 59.0731L117.703 46.9392C115.833 44.3689 112.35 43.7049 109.937 45.4598L107.809 47.008L105.849 44.3138C104.478 42.4281 101.829 42.0104 99.9431 43.3814L89.3589 51.0798C87.4738 52.4509 87.0556 55.1003 88.4269 56.9858L93.5305 64.0022C83.2704 69.7783 71.5024 78.3355 62.8353 86.329L59.0811 81.1681C56.9669 78.2616 52.8764 77.6155 49.9702 79.7301L43.0965 84.7297C40.1884 86.8454 39.5434 90.9324 41.6587 93.8408L42.2687 94.6796L40.1409 96.2273C37.68 98.0169 37.3247 101.554 39.1564 104.072L47.9822 116.206C48.9478 117.534 50.363 118.378 51.8724 118.602V125.102C51.8724 128.28 54.2996 130.867 57.283 130.867H59.9144V134.198C59.9144 136.53 61.8112 138.426 64.1422 138.426H77.2302C79.5614 138.426 81.4579 136.529 81.4579 134.198V125.523C86.079 126.06 91.2736 126.398 96.6092 126.506C96.6205 126.506 96.6315 126.506 96.6426 126.506C97.5254 126.506 98.2499 125.799 98.2679 124.913C98.2859 124.015 97.5726 123.272 96.6747 123.254C91.2949 123.146 86.0686 122.8 81.4579 122.248V112.95C92.9605 111.572 107.673 111.543 119.414 112.95V122.248C114.804 122.8 109.578 123.146 104.198 123.254C103.3 123.272 102.586 124.015 102.604 124.912C102.622 125.799 103.346 126.506 104.23 126.506C104.241 126.506 104.252 126.506 104.263 126.506C109.599 126.398 114.793 126.06 119.414 125.523V134.198C119.414 136.53 121.311 138.426 123.642 138.426H136.73C139.061 138.426 140.958 136.529 140.958 134.198V130.867H143.589C146.573 130.867 149 128.28 149 125.102V120.831C149 119.932 148.272 119.205 147.374 119.205C146.476 119.205 145.748 119.932 145.748 120.831V125.102C145.748 126.464 144.759 127.615 143.589 127.615H140.958V107.585H143.589C144.759 107.585 145.748 108.736 145.748 110.098V113.242C145.748 114.14 146.476 114.868 147.374 114.868ZM111.85 48.0898C112.796 47.4021 114.272 47.7509 115.073 48.8525L123.899 60.9863C124.7 62.0877 124.578 63.6 123.632 64.2882L121.504 65.8359C120.186 64.0239 111.061 51.4785 109.722 49.6375L111.85 48.0898ZM91.0568 55.0732C90.7459 54.6455 90.8444 54.0213 91.2719 53.7102L101.856 46.0116C102.286 45.6996 102.909 45.8004 103.219 46.2268C103.877 47.1318 119.045 67.9841 119.83 69.0642C119.83 69.0646 119.831 69.0651 119.831 69.0655L122.746 73.0732C123.057 73.5009 122.959 74.1251 122.531 74.4362L111.947 82.1348C111.517 82.447 110.899 82.3529 110.584 81.9196C109.943 81.0379 91.831 56.1375 91.0568 55.0732ZM95.4558 66.6497L100.925 74.1691C92.4658 82.0206 80.5996 90.7003 70.2296 96.4946L64.7609 88.9763C73.1978 81.1454 85.0711 72.4521 95.4558 66.6497ZM51.8724 110.097V115.259C51.3887 115.079 50.9417 114.745 50.6126 114.293L41.7868 102.159C40.9489 101.007 41.1362 99.525 42.0541 98.8572L44.182 97.3095C44.4399 97.6644 46.4598 100.441 52.1531 108.269C51.9593 108.884 51.8724 109.52 51.8724 110.097ZM59.9144 127.614H57.283C56.1131 127.614 55.1245 126.464 55.1245 125.101C55.1245 123.632 55.1245 111.629 55.1245 110.097C55.1245 109.529 55.3121 108.916 55.6834 108.434C56.1257 107.859 56.7239 107.584 57.283 107.584H59.9142V127.614H59.9144ZM59.9144 101V104.332H57.283C57.1509 104.332 57.0202 104.339 56.8904 104.349C56.8674 104.351 56.8444 104.353 56.8214 104.355C55.8146 104.446 54.8859 104.831 54.1112 105.431L44.2888 91.9273C43.2283 90.4696 43.5515 88.4202 45.0095 87.3596L51.8832 82.3601C53.3347 81.3036 55.3945 81.6282 56.4509 83.0809C57.6348 84.7084 65.1429 95.0308 66.4099 96.7725H64.142C61.8112 96.7725 59.9144 98.6693 59.9144 101ZM78.206 134.198C78.206 134.727 77.7592 135.174 77.2304 135.174H64.1424C63.6136 135.174 63.1668 134.727 63.1668 134.198C63.1668 132.668 63.1668 101.998 63.1668 101.001C63.1668 100.472 63.6136 100.025 64.1424 100.025C67.4514 100.025 69.2783 100.025 70.2294 100.025C70.9149 100.025 71.1456 100.025 71.1475 100.025C72.0982 100.025 73.924 100.025 77.2304 100.025C77.7592 100.025 78.206 100.472 78.206 101.001C78.206 103.013 78.206 132.961 78.206 134.198ZM137.706 134.198C137.706 134.727 137.259 135.174 136.73 135.174H123.642C123.113 135.174 122.667 134.727 122.667 134.198V101.001C122.667 100.472 123.113 100.025 123.642 100.025H136.73C137.259 100.025 137.706 100.472 137.706 101.001C137.706 103.003 137.706 133.124 137.706 134.198Z" fill="#3B8E87"/>
</g>
<defs>
<clipPath id="clip0">
<rect width="111" height="111" fill="white" transform="translate(37.9999 34.9998)"/>
</clipPath>
</defs>
</svg>
