<svg width="95" height="97" viewBox="0 0 95 97" fill="none" xmlns="http://www.w3.org/2000/svg">
<path d="M18.4733 84.1143C18.3019 84.0125 18.1304 83.9107 17.9741 83.7987C16.6733 82.9026 15.7657 80.8812 15.3422 77.9485C13.8095 67.2462 18.922 47.2518 26.5152 34.2837L27.337 32.8683C28.6278 30.6687 29.9992 28.3114 31.4563 25.9285C33.7857 27.6647 36.0394 29.7064 37.8949 32.0791C42.3217 37.7256 56.5148 50.882 41.7721 65.7696C35.6814 71.9202 22.8194 79.3283 18.4733 84.1143Z" fill="#9CC32F"/>
<path d="M57.8463 75.9272C47.9792 81.4159 39.7457 84.313 33.2314 85.4484C46.154 74.8987 57.9471 58.5141 57.9068 62.4855C57.8765 64.9345 58.2749 70.0312 57.8463 75.9272Z" fill="#4B6B7E"/>
<path d="M55.7991 3.32726C55.7184 3.07268 55.7184 2.82829 55.7537 2.58899C47.7522 3.86186 40.7792 11.7791 34.9355 20.4856C37.6431 22.7768 40.5825 25.2665 43.7136 27.7665C54.9168 36.7275 59.1167 31.7582 60.4881 27.4661C63.4679 18.1384 56.6663 6.03593 55.7991 3.32726ZM53.9084 28.1992C50.9236 29.075 47.5908 26.6107 46.4614 22.6953C45.332 18.78 46.8295 14.8951 49.8143 14.0194C52.7941 13.1386 56.1268 15.6029 57.2613 19.5182C58.3907 23.4336 56.8882 27.3235 53.9084 28.1992Z" fill="#3B8E87"/>
<path d="M71.9029 9.07038C80.2675 16.9419 85.3498 25.6993 86.5951 34.3956C88.5111 47.7557 81.6238 60.174 66.6492 70.525C66.5332 64.2013 66.1551 57.8675 66.2156 52.0581C66.3568 38.0411 67.1887 29.2379 67.1736 21.565C67.1584 15.2871 67.7786 8.86162 66.1299 4.71204C68.0307 5.78635 69.9517 7.23234 71.9029 9.07038Z" fill="#9CC32F"/>
<path d="M23.5408 8.7904C25.6433 6.14278 28.013 4.69168 30.5895 4.49311C34.3104 4.20289 38.3843 5.12956 42.7204 7.1611C39.2112 10.4655 36.0045 14.605 33.0903 18.9226C28.6534 15.1854 24.9324 12.1712 22.1543 10.7965C22.5929 10.0786 23.0568 9.40648 23.5408 8.7904Z" fill="#E64B3B"/>
<path d="M29.4905 24.5435C27.9981 26.9823 26.5914 29.3855 25.2755 31.641L24.4486 33.0514C21.3327 38.3771 18.6504 44.7262 16.6386 51.1619C15.4185 38.8455 16.1798 27.4762 18.6655 18.9835C20.9545 19.8644 25.1998 21.6922 29.4905 24.5435Z" fill="#E64B3B"/>
<path d="M53.4097 93.1925C53.3845 93.2485 53.3643 93.2943 53.334 93.3504C47.8938 93.0652 41.4855 91.4359 35.3242 87.5256C41.5056 86.2324 48.9274 83.5084 57.5693 78.8344C57.0046 83.6 55.8197 88.6763 53.4097 93.1925Z" fill="#E64B3B"/>
<path d="M64.8691 91.5836C66.3212 85.9677 66.6893 79.7408 66.6742 73.4171C74.5951 68.1474 80.5345 62.2005 84.3311 55.8311C84.6286 57.0072 84.8706 58.1731 85.037 59.3238C87.5731 77.027 73.9951 87.8668 64.8691 91.5836Z" fill="#E64B3B"/>
<path d="M53.5755 0.587826C50.4142 1.4432 47.4394 3.16414 44.6512 5.46041C40.9555 3.6071 37.4161 2.47169 34.0732 2.13565C40.4261 0.236511 47.0462 -0.277732 53.5755 0.587826Z" fill="#4B6B7E"/>
<path d="M20.8029 8.46454C19.9861 9.64577 19.2348 10.9645 18.5541 12.4003C17.6264 13.831 16.9206 15.72 16.739 16.9979C16.7239 17.0437 16.7088 17.0896 16.6937 17.1354C12.645 19.2178 8.47529 22.4917 5.1123 26.4223C8.76268 19.1516 14.1324 13.0062 20.8029 8.46454Z" fill="#4B6B7E"/>
<path d="M0.398318 55.0671C0.206724 53.7229 0.0756292 52.3686 0 51.0142C0.796628 52.7403 1.83023 54.4561 3.11089 56.1465C6.0806 60.0568 9.53937 63.1728 13.2906 65.6677C12.615 70.4231 12.4687 74.7866 12.9679 78.2947C13.1998 79.8781 13.5628 81.2325 14.0469 82.3832C6.8016 75.1532 1.91594 65.632 0.398318 55.0671Z" fill="#4B6B7E"/>
<path d="M52.4768 96.003C45.3526 96.7719 38.0922 95.891 31.1645 93.335C29.2133 92.6171 27.3276 91.7719 25.5176 90.8198C26.8033 90.1018 28.099 89.2668 29.3999 88.3605C30.2066 88.3045 31.0385 88.2281 31.9057 88.1161C32.4754 88.5285 33.0351 88.9257 33.5796 89.2872C39.993 93.4776 46.7088 95.2953 52.5071 95.7026C52.497 95.8095 52.4819 95.9114 52.4768 96.003Z" fill="#4B6B7E"/>
<path d="M94.33 39.8893C92.8578 37.5116 90.9519 35.312 88.8444 33.3009C87.5032 25.2563 83.1419 17.2372 76.1387 9.89014C85.6175 17.1099 92.2023 27.7562 94.33 39.8893Z" fill="#4B6B7E"/>
<path d="M92.157 64.7054C89.7873 71.248 86.1218 77.0626 81.4277 81.8843C84.6949 77.6277 87.11 72.3783 87.6344 66.1412C90.0243 64.2879 91.9705 62.3734 93.4881 60.403C93.11 61.8541 92.6663 63.2899 92.157 64.7054Z" fill="#4B6B7E"/>
<path d="M13.709 63.0509C10.4922 60.78 7.55784 58.0204 5.01671 54.6753C2.56128 51.4371 1.07894 48.1378 0.610039 44.8792C-0.882375 34.4874 7.80994 26.0355 15.6653 20.8167C13.2905 30.5873 12.9527 43.255 14.914 56.9258V56.9308C14.9241 57.0174 14.9392 57.104 14.9493 57.1854C14.4603 59.1711 14.0468 61.1365 13.709 63.0509Z" fill="#3B8E87"/>
<path d="M87.7346 62.9285C87.7094 61.6454 87.6035 60.3318 87.4068 58.9775C87.1195 56.951 86.6304 54.889 85.9648 52.8014C88.3698 47.7964 89.4942 42.5674 89.2623 37.2314C92.4387 40.7853 94.3647 44.3953 94.8639 47.883C95.6201 53.1324 93.2101 58.1832 87.7346 62.9285Z" fill="#3B8E87"/>
</svg>
