<svg width="179" height="160" viewBox="0 0 179 160" fill="none" xmlns="http://www.w3.org/2000/svg">
<path fill-rule="evenodd" clip-rule="evenodd" d="M97.9361 5.42655C121.665 6.65702 148.374 -0.0900255 164.674 16.9679C181.973 35.0708 180.646 62.5988 175.92 87.0372C170.912 112.934 162.029 140.074 138.462 152.502C113.965 165.42 84.558 160.039 59.3617 148.503C33.626 136.721 10.8549 117.778 3.53991 90.733C-4.08028 62.5598 -0.0138697 29.2536 21.7803 9.55814C41.5045 -8.26672 71.2249 4.04143 97.9361 5.42655Z" fill="#E64B3B" fill-opacity="0.1"/>
<path d="M89.5 29.7468C79.8942 29.7579 70.685 33.5785 63.8923 40.3705C57.0997 47.1625 53.2783 56.3713 53.2662 65.9771C53.2662 90.526 86.9728 129.13 88.407 130.761C88.5313 130.91 88.6844 131.033 88.857 131.122C89.0297 131.211 89.2184 131.265 89.4122 131.28C89.6059 131.295 89.8007 131.271 89.9851 131.21C90.1694 131.148 90.3396 131.05 90.4855 130.922C90.6315 130.794 90.7502 130.638 90.8348 130.463C90.9194 130.288 90.9681 130.098 90.978 129.903C90.9879 129.709 90.9589 129.515 90.8926 129.333C90.8262 129.15 90.724 128.982 90.5919 128.84C90.2427 128.448 56.1764 89.4306 56.1764 65.9806C56.1764 57.1426 59.6873 48.6666 65.9367 42.4172C72.186 36.1679 80.662 32.657 89.5 32.657C98.338 32.657 106.814 36.1679 113.063 42.4172C119.313 48.6666 122.824 57.1426 122.824 65.9806C122.824 83.9677 102.186 111.779 93.3123 122.903C93.1931 123.053 93.1046 123.224 93.0517 123.408C92.9988 123.591 92.9826 123.784 93.004 123.974C93.0254 124.164 93.084 124.347 93.1764 124.515C93.2689 124.682 93.3934 124.829 93.5428 124.949C93.6922 125.068 93.8637 125.156 94.0473 125.209C94.231 125.262 94.4232 125.278 94.6132 125.257C94.8031 125.235 94.9869 125.177 95.1542 125.084C95.3215 124.992 95.4689 124.867 95.5881 124.718C106.846 110.605 125.737 84.2086 125.737 65.9818C125.726 56.3746 121.905 47.164 115.112 40.3709C108.318 33.5778 99.1072 29.757 89.5 29.7468Z" fill="#E64B3B"/>
<path d="M79.6136 54.5881C79.7673 54.4542 79.9244 54.3239 80.0793 54.197C80.3674 53.9516 80.5486 53.6037 80.5847 53.227C80.6207 52.8503 80.5087 52.4743 80.2723 52.1788C80.0359 51.8832 79.6938 51.6913 79.3183 51.6437C78.9429 51.596 78.5637 51.6964 78.261 51.9236C78.0693 52.0788 77.8807 52.2359 77.6953 52.395C77.5513 52.5207 77.4334 52.6735 77.3485 52.8447C77.2635 53.0159 77.2131 53.2021 77.2001 53.3928C77.1872 53.5835 77.2119 53.7748 77.2729 53.956C77.3338 54.1371 77.4299 54.3044 77.5556 54.4484C77.6812 54.5924 77.834 54.7103 78.0052 54.7952C78.1764 54.8802 78.3627 54.9306 78.5533 54.9435C78.744 54.9565 78.9354 54.9318 79.1165 54.8708C79.2976 54.8098 79.465 54.7138 79.609 54.5881H79.6136Z" fill="#E64B3B"/>
<path d="M75.8408 56.5414C75.5062 56.3512 75.1097 56.3018 74.7386 56.404C74.3675 56.5062 74.0522 56.7515 73.8619 57.0861C71.7803 60.7559 71.0568 65.0413 71.8184 69.1911C72.58 73.3409 74.778 77.0901 78.027 79.7816C81.2761 82.4731 85.3689 83.935 89.5879 83.9111C93.8069 83.8871 97.8829 82.3789 101.101 79.6507C104.32 76.9225 106.475 73.1486 107.189 68.9904C107.904 64.8323 107.132 60.5554 105.009 56.9094C102.885 53.2635 99.5466 50.4813 95.5775 49.0505C91.6085 47.6197 87.2624 47.6317 83.3013 49.0844C82.9389 49.2173 82.6441 49.4887 82.4818 49.839C82.3195 50.1893 82.3029 50.5897 82.4358 50.9521C82.5688 51.3146 82.8402 51.6094 83.1905 51.7717C83.5407 51.934 83.9411 51.9505 84.3036 51.8176C87.6287 50.5971 91.2774 50.5861 94.6098 51.7867C97.9422 52.9873 100.746 55.3227 102.528 58.3835C104.311 61.4442 104.959 65.0349 104.359 68.5258C103.76 72.0167 101.95 75.185 99.2478 77.4751C96.5456 79.7651 93.1234 81.0308 89.5814 81.0502C86.0394 81.0695 82.6036 79.8412 79.8766 77.5807C77.1496 75.3203 75.3055 72.1719 74.6676 68.6878C74.0297 65.2036 74.6387 61.6061 76.388 58.5261C76.4826 58.3599 76.5435 58.1767 76.5672 57.9869C76.591 57.7972 76.577 57.6046 76.5262 57.4202C76.4754 57.2358 76.3887 57.0633 76.2711 56.9125C76.1535 56.7617 76.0073 56.6356 75.8408 56.5414Z" fill="#E64B3B"/>
</svg>
