<svg width="172" height="151" viewBox="0 0 172 151" fill="none" xmlns="http://www.w3.org/2000/svg">
<path fill-rule="evenodd" clip-rule="evenodd" d="M91.4192 11.014C115.359 7.00332 143.233 -9.12288 161.352 7.07936C179.474 23.2843 169.943 53.3008 165.478 77.2395C161.999 95.8874 152.726 111.915 139.304 125.28C125.947 138.58 110.229 151.549 91.4192 150.982C72.9592 150.426 60.7183 134.091 46.3276 122.478C28.8791 108.397 1.17494 99.6761 0.038633 77.2395C-1.10243 54.7089 23.2721 40.3684 41.5002 27.1581C56.2329 16.481 73.4928 14.0172 91.4192 11.014Z" fill="#80B8DA" fill-opacity="0.1"/>
<path d="M89.9999 124.297C89.6415 124.297 89.2978 124.155 89.0444 123.901C88.7909 123.648 88.6486 123.304 88.6486 122.946V86.189C88.6486 85.8306 88.7909 85.4869 89.0444 85.2334C89.2978 84.98 89.6415 84.8376 89.9999 84.8376C90.3583 84.8376 90.702 84.98 90.9555 85.2334C91.2089 85.4869 91.3513 85.8306 91.3513 86.189V122.946C91.3513 123.304 91.2089 123.648 90.9555 123.901C90.702 124.155 90.3583 124.297 89.9999 124.297Z" fill="#80B8DA"/>
<path d="M89.9999 69.1621C89.6415 69.1621 89.2978 69.0197 89.0444 68.7663C88.7909 68.5129 88.6486 68.1691 88.6486 67.8107V31.054C88.6486 30.6956 88.7909 30.3519 89.0444 30.0984C89.2978 29.845 89.6415 29.7026 89.9999 29.7026C90.3583 29.7026 90.702 29.845 90.9555 30.0984C91.2089 30.3519 91.3513 30.6956 91.3513 31.054V67.8107C91.3513 68.1691 91.2089 68.5129 90.9555 68.7663C90.702 69.0197 90.3583 69.1621 89.9999 69.1621Z" fill="#80B8DA"/>
<path d="M90 45.5012C89.6416 45.5012 89.2979 45.3587 89.0446 45.1053L81.2067 37.2674C80.9606 37.0126 80.8244 36.6712 80.8274 36.3169C80.8305 35.9626 80.9726 35.6236 81.2232 35.3731C81.4737 35.1225 81.8127 34.9804 82.167 34.9773C82.5213 34.9743 82.8627 35.1105 83.1175 35.3566L90 42.2391L96.8797 35.3593C97.1346 35.1132 97.4759 34.977 97.8303 34.98C98.1846 34.9831 98.5235 35.1252 98.7741 35.3758C99.0246 35.6264 99.1667 35.9653 99.1698 36.3196C99.1729 36.6739 99.0367 37.0153 98.7905 37.2701L90.9527 45.108C90.6995 45.3598 90.357 45.5012 90 45.5012Z" fill="#80B8DA"/>
<path d="M89.9999 57.3379C89.6415 57.3378 89.2978 57.1954 89.0445 56.942L81.2066 49.1041C81.0776 48.9795 80.9746 48.8304 80.9038 48.6655C80.833 48.5006 80.7957 48.3233 80.7941 48.1439C80.7926 47.9644 80.8268 47.7865 80.8947 47.6204C80.9626 47.4543 81.063 47.3034 81.1899 47.1766C81.3168 47.0497 81.4676 46.9493 81.6337 46.8814C81.7998 46.8134 81.9777 46.7793 82.1572 46.7808C82.3366 46.7824 82.5139 46.8197 82.6788 46.8905C82.8437 46.9613 82.9928 47.0642 83.1174 47.1933L89.9999 54.0757L96.8796 47.196C97.0043 47.0669 97.1534 46.964 97.3183 46.8932C97.4831 46.8224 97.6604 46.7851 97.8399 46.7835C98.0193 46.782 98.1973 46.8161 98.3633 46.8841C98.5294 46.952 98.6803 47.0524 98.8072 47.1793C98.9341 47.3061 99.0344 47.457 99.1023 47.6231C99.1703 47.7892 99.2045 47.9671 99.2029 48.1466C99.2014 48.326 99.1641 48.5033 99.0933 48.6682C99.0224 48.8331 98.9195 48.9822 98.7904 49.1068L90.9526 56.9447C90.6994 57.1965 90.3569 57.3378 89.9999 57.3379Z" fill="#80B8DA"/>
<path d="M97.8378 119.036C97.4794 119.036 97.1358 118.894 96.8824 118.64L90 111.761L83.1202 118.64C82.8654 118.887 82.524 119.023 82.1697 119.02C81.8154 119.017 81.4764 118.874 81.2259 118.624C80.9753 118.373 80.8332 118.034 80.8301 117.68C80.8271 117.326 80.9633 116.984 81.2094 116.73L89.0473 108.892C89.3007 108.638 89.6443 108.496 90.0027 108.496C90.361 108.496 90.7046 108.638 90.9581 108.892L98.7959 116.73C98.9848 116.919 99.1135 117.159 99.1656 117.421C99.2177 117.684 99.191 117.955 99.0887 118.202C98.9865 118.449 98.8133 118.66 98.5911 118.808C98.3689 118.957 98.1077 119.036 97.8405 119.036H97.8378Z" fill="#80B8DA"/>
<path d="M97.8378 107.201C97.4794 107.201 97.1358 107.059 96.8824 106.805L90 99.9242L83.1202 106.804C82.8654 107.05 82.524 107.186 82.1697 107.183C81.8154 107.18 81.4764 107.038 81.2259 106.788C80.9753 106.537 80.8332 106.198 80.8301 105.844C80.8271 105.489 80.9633 105.148 81.2094 104.893L89.0473 97.0553C89.3007 96.802 89.6443 96.6597 90.0027 96.6597C90.361 96.6597 90.7046 96.802 90.9581 97.0553L98.7959 104.893C98.9848 105.082 99.1135 105.323 99.1656 105.585C99.2177 105.847 99.191 106.119 99.0887 106.366C98.9865 106.613 98.8133 106.824 98.5911 106.972C98.3689 107.121 98.1077 107.2 97.8405 107.2L97.8378 107.201Z" fill="#80B8DA"/>
<path d="M80.8107 78.3514H44.054C43.6956 78.3514 43.3519 78.209 43.0984 77.9556C42.845 77.7022 42.7026 77.3584 42.7026 77C42.7026 76.6416 42.845 76.2979 43.0984 76.0445C43.3519 75.7911 43.6956 75.6487 44.054 75.6487H80.8107C81.1691 75.6487 81.5129 75.7911 81.7663 76.0445C82.0197 76.2979 82.1621 76.6416 82.1621 77C82.1621 77.3584 82.0197 77.7022 81.7663 77.9556C81.5129 78.209 81.1691 78.3514 80.8107 78.3514Z" fill="#80B8DA"/>
<path d="M135.946 78.3514H99.1891C98.8307 78.3514 98.487 78.209 98.2336 77.9556C97.9801 77.7022 97.8378 77.3584 97.8378 77C97.8378 76.6416 97.9801 76.2979 98.2336 76.0445C98.487 75.7911 98.8307 75.6487 99.1891 75.6487H135.946C136.304 75.6487 136.648 75.7911 136.901 76.0445C137.155 76.2979 137.297 76.6416 137.297 77C137.297 77.3584 137.155 77.7022 136.901 77.9556C136.648 78.209 136.304 78.3514 135.946 78.3514Z" fill="#80B8DA"/>
<path d="M130.685 86.1892C130.327 86.1891 129.983 86.0467 129.73 85.7932L121.892 77.9554C121.639 77.702 121.496 77.3583 121.496 77C121.496 76.6417 121.639 76.298 121.892 76.0446L129.73 68.2067C129.985 67.9606 130.326 67.8244 130.68 67.8274C131.035 67.8305 131.374 67.9726 131.624 68.2232C131.875 68.4737 132.017 68.8127 132.02 69.167C132.023 69.5213 131.887 69.8627 131.641 70.1175L124.761 77L131.641 83.8797C131.829 84.0687 131.958 84.3095 132.01 84.5716C132.062 84.8337 132.036 85.1053 131.933 85.3522C131.831 85.5991 131.658 85.8101 131.436 85.9586C131.214 86.1071 130.952 86.1864 130.685 86.1865V86.1892Z" fill="#80B8DA"/>
<path d="M118.85 86.1892C118.492 86.1891 118.148 86.0467 117.895 85.7932L110.057 77.9554C109.803 77.702 109.661 77.3583 109.661 77C109.661 76.6417 109.803 76.298 110.057 76.0446L117.895 68.2067C118.149 67.9606 118.491 67.8244 118.845 67.8274C119.199 67.8305 119.538 67.9726 119.789 68.2232C120.039 68.4737 120.182 68.8127 120.185 69.167C120.188 69.5213 120.051 69.8627 119.805 70.1175L112.924 77L119.804 83.8797C119.993 84.0687 120.122 84.3095 120.174 84.5716C120.226 84.8337 120.199 85.1053 120.097 85.3522C119.995 85.5991 119.821 85.8101 119.599 85.9586C119.377 86.1071 119.116 86.1864 118.849 86.1865L118.85 86.1892Z" fill="#80B8DA"/>
<path d="M49.3149 86.1891C49.0477 86.1891 48.7865 86.1098 48.5643 85.9613C48.3421 85.8128 48.169 85.6018 48.0667 85.3549C47.9645 85.108 47.9377 84.8363 47.9898 84.5742C48.0419 84.3121 48.1706 84.0714 48.3595 83.8824L55.2393 77L48.3595 70.1202C48.1134 69.8654 47.9772 69.524 47.9802 69.1697C47.9833 68.8154 48.1254 68.4764 48.376 68.2259C48.6265 67.9753 48.9655 67.8332 49.3198 67.8301C49.6741 67.8271 50.0155 67.9633 50.2703 68.2094L58.1082 76.0472C58.3615 76.3007 58.5038 76.6443 58.5038 77.0027C58.5038 77.361 58.3615 77.7046 58.1082 77.9581L50.2703 85.7959C50.0165 86.0483 49.6729 86.1898 49.3149 86.1891Z" fill="#80B8DA"/>
<path d="M61.1499 86.1892C60.8827 86.1891 60.6215 86.1098 60.3993 85.9613C60.1771 85.8128 60.004 85.6018 59.9017 85.3549C59.7995 85.108 59.7727 84.8363 59.8248 84.5742C59.8769 84.3122 60.0056 84.0714 60.1945 83.8824L67.0756 77L60.1959 70.1202C60.0668 69.9956 59.9639 69.8465 59.893 69.6816C59.8222 69.5167 59.7849 69.3394 59.7834 69.16C59.7818 68.9805 59.816 68.8026 59.884 68.6365C59.9519 68.4704 60.0522 68.3196 60.1791 68.1927C60.306 68.0658 60.4569 67.9655 60.623 67.8975C60.789 67.8296 60.967 67.7954 61.1464 67.7969C61.3258 67.7985 61.5032 67.8358 61.668 67.9066C61.8329 67.9774 61.982 68.0804 62.1067 68.2094L69.9445 76.0473C70.1979 76.3007 70.3402 76.6443 70.3402 77.0027C70.3402 77.361 70.1979 77.7047 69.9445 77.9581L62.1067 85.7959C61.9808 85.9211 61.8316 86.0202 61.6674 86.0877C61.5033 86.1552 61.3274 86.1896 61.1499 86.1892Z" fill="#80B8DA"/>
<path d="M122.49 110.842C122.132 110.842 121.788 110.699 121.535 110.446L95.5403 84.4539C95.2866 84.2001 95.144 83.856 95.144 83.4971C95.144 83.1382 95.2866 82.7941 95.5403 82.5403C95.7941 82.2866 96.1382 82.144 96.4971 82.144C96.856 82.144 97.2001 82.2866 97.4539 82.5403L123.446 108.535C123.635 108.724 123.763 108.965 123.815 109.227C123.868 109.489 123.841 109.761 123.739 110.007C123.636 110.254 123.463 110.465 123.241 110.614C123.019 110.762 122.758 110.842 122.49 110.842Z" fill="#80B8DA"/>
<path d="M83.5013 71.8526C83.143 71.8525 82.7993 71.71 82.5459 71.4566L56.554 45.4647C56.3079 45.2098 56.1717 44.8685 56.1747 44.5142C56.1778 44.1598 56.3199 43.8209 56.5705 43.5704C56.821 43.3198 57.16 43.1777 57.5143 43.1746C57.8686 43.1715 58.21 43.3077 58.4648 43.5539L84.4594 69.5458C84.6484 69.7348 84.777 69.9755 84.8291 70.2376C84.8813 70.4997 84.8545 70.7714 84.7522 71.0183C84.65 71.2652 84.4768 71.4762 84.2546 71.6247C84.0325 71.7732 83.7713 71.8525 83.504 71.8526H83.5013Z" fill="#80B8DA"/>
<path d="M66.773 55.1244H55.6919C55.3335 55.1244 54.9898 54.982 54.7364 54.7286C54.4829 54.4751 54.3406 54.1314 54.3406 53.773C54.3406 53.4146 54.4829 53.0709 54.7364 52.8175C54.9898 52.564 55.3335 52.4217 55.6919 52.4217H65.4217V42.6919C65.4217 42.3335 65.564 41.9898 65.8175 41.7364C66.0709 41.4829 66.4146 41.3406 66.773 41.3406C67.1314 41.3406 67.4751 41.4829 67.7286 41.7364C67.982 41.9898 68.1244 42.3335 68.1244 42.6919V53.773C68.1244 54.1314 67.982 54.4751 67.7286 54.7286C67.4751 54.982 67.1314 55.1244 66.773 55.1244Z" fill="#80B8DA"/>
<path d="M75.1351 63.4864H64.054C63.6956 63.4864 63.3519 63.3441 63.0984 63.0906C62.845 62.8372 62.7026 62.4935 62.7026 62.1351C62.7026 61.7767 62.845 61.433 63.0984 61.1795C63.3519 60.9261 63.6956 60.7837 64.054 60.7837H73.7837V51.054C73.7837 50.6956 73.9261 50.3519 74.1795 50.0984C74.4329 49.845 74.7767 49.7026 75.1351 49.7026C75.4935 49.7026 75.8372 49.845 76.0906 50.0984C76.344 50.3519 76.4864 50.6956 76.4864 51.054V62.1351C76.4864 62.4935 76.344 62.8372 76.0906 63.0906C75.8372 63.3441 75.4935 63.4864 75.1351 63.4864Z" fill="#80B8DA"/>
<path d="M113.227 112.661C112.869 112.661 112.525 112.518 112.271 112.265C112.018 112.012 111.876 111.668 111.876 111.309V100.228C111.876 99.8699 112.018 99.5262 112.271 99.2728C112.525 99.0193 112.869 98.877 113.227 98.877H124.308C124.666 98.877 125.01 99.0193 125.264 99.2728C125.517 99.5262 125.659 99.8699 125.659 100.228C125.659 100.587 125.517 100.93 125.264 101.184C125.01 101.437 124.666 101.58 124.308 101.58H114.578V111.309C114.578 111.668 114.436 112.012 114.183 112.265C113.929 112.518 113.585 112.661 113.227 112.661Z" fill="#80B8DA"/>
<path d="M104.865 104.297C104.506 104.297 104.163 104.155 103.909 103.901C103.656 103.648 103.513 103.304 103.513 102.946V91.8648C103.513 91.5064 103.656 91.1627 103.909 90.9092C104.163 90.6558 104.506 90.5134 104.865 90.5134H115.946C116.304 90.5134 116.648 90.6558 116.901 90.9092C117.155 91.1627 117.297 91.5064 117.297 91.8648C117.297 92.2232 117.155 92.5669 116.901 92.8203C116.648 93.0738 116.304 93.2161 115.946 93.2161H106.216V102.946C106.216 103.304 106.074 103.648 105.82 103.901C105.567 104.155 105.223 104.297 104.865 104.297Z" fill="#80B8DA"/>
<path d="M57.5094 110.842C57.2422 110.842 56.9809 110.762 56.7588 110.614C56.5366 110.465 56.3634 110.254 56.2612 110.007C56.1589 109.761 56.1322 109.489 56.1843 109.227C56.2364 108.965 56.3651 108.724 56.554 108.535L82.5459 82.5403C82.7996 82.2866 83.1438 82.144 83.5026 82.144C83.8615 82.144 84.2056 82.2866 84.4594 82.5403C84.7131 82.7941 84.8557 83.1382 84.8557 83.4971C84.8557 83.856 84.7131 84.2001 84.4594 84.4539L58.4648 110.446C58.2114 110.699 57.8678 110.842 57.5094 110.842Z" fill="#80B8DA"/>
<path d="M96.4985 71.8526C96.2313 71.8525 95.9701 71.7732 95.7479 71.6247C95.5257 71.4762 95.3526 71.2652 95.2503 71.0183C95.1481 70.7714 95.1213 70.4997 95.1734 70.2376C95.2255 69.9755 95.3542 69.7348 95.5431 69.5458L121.535 43.5539C121.79 43.3077 122.131 43.1715 122.486 43.1746C122.84 43.1777 123.179 43.3198 123.429 43.5704C123.68 43.8209 123.822 44.1598 123.825 44.5142C123.828 44.8685 123.692 45.2098 123.446 45.4647L97.4539 71.4593C97.2001 71.7118 96.8565 71.8532 96.4985 71.8526Z" fill="#80B8DA"/>
<path d="M124.309 55.1244H113.228C112.87 55.1244 112.526 54.982 112.273 54.7286C112.019 54.4751 111.877 54.1314 111.877 53.773V42.6919C111.877 42.3335 112.019 41.9898 112.273 41.7364C112.526 41.4829 112.87 41.3406 113.228 41.3406C113.587 41.3406 113.93 41.4829 114.184 41.7364C114.437 41.9898 114.58 42.3335 114.58 42.6919V52.4217H124.309C124.668 52.4217 125.011 52.564 125.265 52.8175C125.518 53.0709 125.661 53.4146 125.661 53.773C125.661 54.1314 125.518 54.4751 125.265 54.7286C125.011 54.982 124.668 55.1244 124.309 55.1244Z" fill="#80B8DA"/>
<path d="M115.946 63.4864H104.865C104.506 63.4864 104.163 63.3441 103.909 63.0906C103.656 62.8372 103.513 62.4935 103.513 62.1351V51.054C103.513 50.6956 103.656 50.3519 103.909 50.0984C104.163 49.845 104.506 49.7026 104.865 49.7026C105.223 49.7026 105.567 49.845 105.82 50.0984C106.074 50.3519 106.216 50.6956 106.216 51.054V60.7837H115.946C116.304 60.7837 116.648 60.9261 116.901 61.1795C117.155 61.433 117.297 61.7767 117.297 62.1351C117.297 62.4935 117.155 62.8372 116.901 63.0906C116.648 63.3441 116.304 63.4864 115.946 63.4864Z" fill="#80B8DA"/>
<path d="M66.773 112.661C66.4146 112.661 66.0709 112.518 65.8175 112.265C65.564 112.012 65.4217 111.668 65.4217 111.309V101.58H55.6919C55.3335 101.58 54.9898 101.437 54.7364 101.184C54.4829 100.93 54.3406 100.587 54.3406 100.228C54.3406 99.8699 54.4829 99.5262 54.7364 99.2728C54.9898 99.0193 55.3335 98.877 55.6919 98.877H66.773C67.1314 98.877 67.4751 99.0193 67.7286 99.2728C67.982 99.5262 68.1244 99.8699 68.1244 100.228V111.309C68.1244 111.668 67.982 112.012 67.7286 112.265C67.4751 112.518 67.1314 112.661 66.773 112.661Z" fill="#80B8DA"/>
<path d="M75.1351 104.297C74.7767 104.297 74.4329 104.155 74.1795 103.901C73.9261 103.648 73.7837 103.304 73.7837 102.946V93.2161H64.054C63.6956 93.2161 63.3519 93.0738 63.0984 92.8203C62.845 92.5669 62.7026 92.2232 62.7026 91.8648C62.7026 91.5064 62.845 91.1627 63.0984 90.9092C63.3519 90.6558 63.6956 90.5134 64.054 90.5134H75.1351C75.4935 90.5134 75.8372 90.6558 76.0906 90.9092C76.344 91.1627 76.4864 91.5064 76.4864 91.8648V102.946C76.4864 103.304 76.344 103.648 76.0906 103.901C75.8372 104.155 75.4935 104.297 75.1351 104.297Z" fill="#80B8DA"/>
<path d="M89.9999 87.5406C87.9152 87.5406 85.8773 86.9224 84.1439 85.7642C82.4105 84.606 81.0595 82.9597 80.2617 81.0337C79.4639 79.1077 79.2552 76.9883 79.6619 74.9437C80.0686 72.899 81.0725 71.0209 82.5466 69.5467C84.0207 68.0726 85.8989 67.0687 87.9435 66.662C89.9882 66.2553 92.1076 66.464 94.0336 67.2618C95.9596 68.0596 97.6058 69.4106 98.764 71.144C99.9223 72.8774 100.54 74.9153 100.54 77C100.537 79.7946 99.4257 82.4737 97.4496 84.4498C95.4736 86.4258 92.7944 87.5373 89.9999 87.5406ZM89.9999 69.1622C88.4497 69.1622 86.9344 69.6219 85.6454 70.4831C84.3565 71.3443 83.3519 72.5684 82.7587 74.0006C82.1655 75.4328 82.0102 77.0087 82.3127 78.5291C82.6151 80.0495 83.3616 81.4461 84.4577 82.5422C85.5539 83.6384 86.9504 84.3848 88.4708 84.6873C89.9912 84.9897 91.5671 84.8345 92.9993 84.2412C94.4315 83.648 95.6556 82.6434 96.5168 81.3545C97.3781 80.0656 97.8377 78.5502 97.8377 77C97.8356 74.922 97.0091 72.9296 95.5397 71.4602C94.0703 69.9908 92.078 69.1643 89.9999 69.1622Z" fill="#80B8DA"/>
</svg>
