<svg width="175" height="187" viewBox="0 0 175 187" fill="none" xmlns="http://www.w3.org/2000/svg">
<path fill-rule="evenodd" clip-rule="evenodd" d="M87.3484 1.52222C107.266 5.66817 117.117 27.063 132.525 40.3709C146.18 52.1639 165.911 58.1316 172.401 74.982C179.003 92.1221 171.544 110.771 166.438 128.416C161.151 146.683 157.964 167.695 142.413 178.604C126.929 189.465 105.777 188.105 87.3484 183.894C71.4662 180.265 61.7819 165.619 47.9397 157.014C32.4565 147.389 8.53255 147.467 1.59419 130.586C-5.3065 113.797 12.1952 97.2025 16.065 79.4644C20.5849 58.746 11.8077 33.8558 26.108 18.2197C40.759 2.20007 66.1152 -2.89755 87.3484 1.52222Z" fill="#FCD611" fill-opacity="0.1"/>
<g clip-path="url(#clip0)">
<path d="M135.806 84.8965C135.326 83.42 134.068 82.4135 132.522 82.27L103.171 79.5479L97.3534 66.0378C97.0461 65.3245 96.2192 64.9949 95.5058 65.3024C94.7925 65.6095 94.4633 66.4368 94.7704 67.1498L100.919 81.4269C101.122 81.8995 101.568 82.2234 102.08 82.2708L132.262 85.07C132.861 85.1255 133.07 85.5747 133.132 85.7652C133.194 85.9557 133.289 86.4417 132.837 86.8387L110.065 106.844C109.678 107.184 109.508 107.708 109.621 108.21L116.286 137.779C116.418 138.366 116.055 138.703 115.893 138.821C115.731 138.939 115.298 139.18 114.781 138.873L88.7177 123.397C88.2754 123.134 87.7242 123.134 87.282 123.397L61.219 138.873C60.7015 139.18 60.2691 138.939 60.1069 138.821C59.9447 138.703 59.5819 138.366 59.7141 137.779L63.1543 122.516C63.3251 121.758 62.8493 121.005 62.0918 120.835C61.333 120.664 60.5816 121.14 60.4108 121.897L56.9706 137.161C56.6293 138.676 57.1976 140.184 58.4537 141.096C59.7098 142.009 61.3196 142.084 62.6545 141.291L87.9996 126.241L113.345 141.291C113.96 141.656 114.633 141.837 115.303 141.837C116.087 141.837 116.868 141.589 117.545 141.096C118.802 140.184 119.37 138.676 119.028 137.161L112.547 108.406L134.693 88.952C135.86 87.9271 136.286 86.3733 135.806 84.8965Z" fill="#FCD611"/>
<path d="M94.769 60.0365L91.5126 52.475C90.8984 51.0488 89.5525 50.1631 87.9996 50.1631C86.4471 50.1631 85.1011 51.049 84.4868 52.4751L72.8281 79.5479L43.4783 82.2698C41.9324 82.4133 40.6737 83.4196 40.1937 84.8963C39.7139 86.3729 40.1405 87.9269 41.3071 88.9518L63.452 108.406L61.7661 115.886C61.5953 116.643 62.0712 117.396 62.8287 117.567C62.933 117.59 63.0368 117.601 63.1392 117.601C63.7823 117.601 64.3625 117.158 64.5096 116.504L66.379 108.21C66.4923 107.707 66.322 107.183 65.9354 106.844L43.1631 86.8388C42.7113 86.4419 42.8065 85.9559 42.8686 85.7654C42.9305 85.5749 43.139 85.1256 43.738 85.0701L73.9195 82.271C74.432 82.2235 74.8776 81.8997 75.0813 81.427L87.07 53.5876C87.308 53.0352 87.7996 52.9754 87.9998 52.9754C88.2003 52.9754 88.6919 53.035 88.9298 53.5874L92.1861 61.1487C92.4936 61.862 93.3205 62.1914 94.0338 61.8841C94.7468 61.577 95.0761 60.7497 94.769 60.0365Z" fill="#FCD611"/>
</g>
<defs>
<clipPath id="clip0">
<rect width="96" height="96" fill="white" transform="translate(40 48)"/>
</clipPath>
</defs>
</svg>
