<svg width="161" height="191" viewBox="0 0 161 191" fill="none" xmlns="http://www.w3.org/2000/svg">
<path fill-rule="evenodd" clip-rule="evenodd" d="M81.9471 1.696C103.197 5.89729 116.807 25.2721 131.781 40.9559C144.017 53.7714 157.639 66.5974 160.607 84.0837C163.393 100.504 150.577 114.621 147.044 130.897C142.906 149.96 154.232 176.23 138.203 187.3C122.052 198.454 100.778 181.353 81.9471 175.854C68.8909 172.042 56.5376 167.93 45.3476 160.185C33.8838 152.25 24.0083 142.902 16.9474 130.865C8.18427 115.926 0.327924 100.372 0.0962926 83.0445C-0.20918 60.1932 -0.75332 34.0455 15.438 17.9535C32.0478 1.44566 58.9974 -2.84143 81.9471 1.696Z" fill="#4B6B7E" fill-opacity="0.1"/>
<g clip-path="url(#clip0)">
<path d="M128.463 78.9117C130.801 81.814 130.46 86.3464 127.527 88.7692C124.835 90.9909 121.094 90.4997 118.961 87.8488C109.208 75.729 95.2456 68.7777 80.6528 68.7777H80.4323C65.7525 68.8473 51.7745 75.9301 42.0795 88.2103C39.9545 90.9038 36.2091 91.3872 33.5291 89.2158C30.5437 86.7969 30.2034 82.2645 32.4966 79.3622C44.2296 64.5064 61.3613 55.2503 80.3685 55.1594H80.645C89.847 55.1594 98.7357 57.2825 107.066 61.4668C107.781 61.8265 108.069 62.6985 107.71 63.4139C107.35 64.1294 106.48 64.4175 105.764 64.0578C97.8424 60.0785 89.3907 58.0598 80.645 58.0598H80.3801C62.9256 58.143 46.3005 66.5618 34.7724 81.1605C33.3919 82.9065 33.7012 85.6213 35.3506 86.9574C36.7814 88.1175 38.6802 87.8352 39.8037 86.414C50.0478 73.4358 64.8514 65.9508 80.4169 65.8773H80.6528C96.1273 65.8773 110.914 73.2231 121.221 86.0312C122.361 87.4466 124.265 87.7018 125.675 86.5378C127.328 85.1727 127.593 82.456 126.204 80.7312C121.943 75.437 116.991 70.9356 111.486 67.3488C110.815 66.9118 110.625 66.0127 111.062 65.3417C111.5 64.6708 112.399 64.4813 113.07 64.9183C118.832 68.6714 124.01 73.3797 128.463 78.9117Z" fill="#4B6B7E"/>
<path d="M112.59 91.5689C115.171 94.508 114.814 99.2184 111.851 101.664C109.287 103.782 105.662 103.449 103.411 100.893C97.3438 94.0033 89.2517 90.2137 80.6104 90.2137C80.564 90.2137 80.5176 90.2137 80.4712 90.2137C71.7778 90.2543 63.6664 94.1234 57.6316 101.108C55.406 103.683 51.7825 104.052 49.2031 101.962L49.1992 101.958C46.2118 99.5373 45.8154 94.8311 48.3658 91.8708C56.5024 82.4252 67.8913 76.6553 80.4074 76.5954C93.0046 76.5391 104.421 82.2606 112.59 91.5689ZM110.001 99.4309C111.712 98.0173 111.911 95.1906 110.411 93.4813C102.491 84.4572 91.91 79.4956 80.6025 79.4956C80.5426 79.4956 80.4826 79.4956 80.4227 79.4956C69.0454 79.5497 58.4416 84.6157 50.5641 93.7616C49.8448 94.597 49.4929 95.7436 49.5973 96.9078C49.6979 98.0312 50.218 99.0502 51.0243 99.7038C51.0243 99.7038 51.0243 99.7057 51.0263 99.7057L51.0282 99.7076C52.3856 100.806 54.2399 100.599 55.4368 99.2109C62.0284 91.5829 70.9133 87.358 80.4575 87.3135H80.6104C90.0967 87.3135 98.9622 91.4514 105.589 98.9769C106.799 100.351 108.655 100.543 110.001 99.4309Z" fill="#4B6B7E"/>
<path d="M96.1835 104.048C97.6414 105.328 98.4786 107.235 98.4786 109.277C98.4786 111.425 97.5755 113.403 96.0015 114.703C93.6232 116.667 90.4059 116.478 88.1898 114.562C86.8846 113.432 85.4211 112.614 83.8373 112.135C83.0696 111.901 82.6365 111.091 82.8705 110.325C83.1025 109.559 83.9129 109.126 84.6786 109.358C86.6528 109.958 88.4742 110.971 90.0868 112.367C91.2818 113.4 92.9157 113.491 94.1551 112.468C96.0172 110.929 96.0539 107.794 94.2692 106.228C90.3208 102.763 85.5777 100.932 80.5562 100.932H80.4633C75.4031 100.955 70.6465 102.832 66.7019 106.358C64.9037 107.964 65.0352 111.105 66.876 112.595C68.1154 113.599 69.7493 113.51 70.9404 112.458C72.7696 110.845 74.9449 109.699 77.2323 109.146C78.0096 108.956 78.7946 109.436 78.9822 110.213C79.1717 110.992 78.6922 111.775 77.9149 111.965C76.0857 112.408 74.3358 113.33 72.8585 114.634C70.6387 116.592 67.4232 116.772 65.0507 114.848C61.7693 112.191 61.6862 106.953 64.7684 104.196C69.1847 100.247 74.7534 98.0588 80.4479 98.0315H80.5562C86.21 98.0311 91.7613 100.168 96.1835 104.048Z" fill="#4B6B7E"/>
<path d="M80.5 120.801C84.634 120.801 87.9946 124.175 87.9946 128.321C87.9946 132.468 84.634 135.84 80.5 135.84C76.3679 135.84 73.0054 132.468 73.0054 128.321C73.0054 124.175 76.3679 120.801 80.5 120.801ZM85.0942 128.321C85.0942 125.774 83.033 123.701 80.5 123.701C77.967 123.701 75.9058 125.774 75.9058 128.321C75.9058 130.869 77.967 132.94 80.5 132.94C83.033 132.94 85.0942 130.869 85.0942 128.321Z" fill="#4B6B7E"/>
</g>
<defs>
<clipPath id="clip0">
<rect width="99" height="99" fill="white" transform="translate(31 46)"/>
</clipPath>
</defs>
</svg>
